%TF.GenerationSoftware,KiCad,Pcbnew,7.99.0-2684-g11de95778b*%
%TF.CreationDate,2023-11-20T14:54:00-05:00*%
%TF.ProjectId,ADC_MCPV01,4144435f-4d43-4505-9630-312e6b696361,rev?*%
%TF.SameCoordinates,Original*%
%TF.FileFunction,Paste,Top*%
%TF.FilePolarity,Positive*%
%FSLAX46Y46*%
G04 Gerber Fmt 4.6, Leading zero omitted, Abs format (unit mm)*
G04 Created by KiCad (PCBNEW 7.99.0-2684-g11de95778b) date 2023-11-20 14:54:00*
%MOMM*%
%LPD*%
G01*
G04 APERTURE LIST*
G04 Aperture macros list*
%AMRoundRect*
0 Rectangle with rounded corners*
0 $1 Rounding radius*
0 $2 $3 $4 $5 $6 $7 $8 $9 X,Y pos of 4 corners*
0 Add a 4 corners polygon primitive as box body*
4,1,4,$2,$3,$4,$5,$6,$7,$8,$9,$2,$3,0*
0 Add four circle primitives for the rounded corners*
1,1,$1+$1,$2,$3*
1,1,$1+$1,$4,$5*
1,1,$1+$1,$6,$7*
1,1,$1+$1,$8,$9*
0 Add four rect primitives between the rounded corners*
20,1,$1+$1,$2,$3,$4,$5,0*
20,1,$1+$1,$4,$5,$6,$7,0*
20,1,$1+$1,$6,$7,$8,$9,0*
20,1,$1+$1,$8,$9,$2,$3,0*%
G04 Aperture macros list end*
%ADD10C,0.010000*%
%ADD11RoundRect,0.237500X-0.237500X0.287500X-0.237500X-0.287500X0.237500X-0.287500X0.237500X0.287500X0*%
%ADD12RoundRect,0.250000X-0.625000X0.312500X-0.625000X-0.312500X0.625000X-0.312500X0.625000X0.312500X0*%
%ADD13RoundRect,0.237500X0.287500X0.237500X-0.287500X0.237500X-0.287500X-0.237500X0.287500X-0.237500X0*%
%ADD14R,2.830000X0.970000*%
%ADD15RoundRect,0.250000X0.312500X0.625000X-0.312500X0.625000X-0.312500X-0.625000X0.312500X-0.625000X0*%
%ADD16RoundRect,0.250000X-1.500000X-0.550000X1.500000X-0.550000X1.500000X0.550000X-1.500000X0.550000X0*%
%ADD17RoundRect,0.250000X0.625000X-0.312500X0.625000X0.312500X-0.625000X0.312500X-0.625000X-0.312500X0*%
G04 APERTURE END LIST*
D10*
%TO.C,U1*%
X149038000Y-42971000D02*
X147578000Y-42971000D01*
X147578000Y-41661000D01*
X149038000Y-41661000D01*
X149038000Y-42971000D01*
G36*
X149038000Y-42971000D02*
G01*
X147578000Y-42971000D01*
X147578000Y-41661000D01*
X149038000Y-41661000D01*
X149038000Y-42971000D01*
G37*
X149038000Y-44851000D02*
X147578000Y-44851000D01*
X147578000Y-43541000D01*
X149038000Y-43541000D01*
X149038000Y-44851000D01*
G36*
X149038000Y-44851000D02*
G01*
X147578000Y-44851000D01*
X147578000Y-43541000D01*
X149038000Y-43541000D01*
X149038000Y-44851000D01*
G37*
X149038000Y-46731000D02*
X147578000Y-46731000D01*
X147578000Y-45421000D01*
X149038000Y-45421000D01*
X149038000Y-46731000D01*
G36*
X149038000Y-46731000D02*
G01*
X147578000Y-46731000D01*
X147578000Y-45421000D01*
X149038000Y-45421000D01*
X149038000Y-46731000D01*
G37*
X151068000Y-42971000D02*
X149608000Y-42971000D01*
X149608000Y-41661000D01*
X151068000Y-41661000D01*
X151068000Y-42971000D01*
G36*
X151068000Y-42971000D02*
G01*
X149608000Y-42971000D01*
X149608000Y-41661000D01*
X151068000Y-41661000D01*
X151068000Y-42971000D01*
G37*
X151068000Y-44851000D02*
X149608000Y-44851000D01*
X149608000Y-43541000D01*
X151068000Y-43541000D01*
X151068000Y-44851000D01*
G36*
X151068000Y-44851000D02*
G01*
X149608000Y-44851000D01*
X149608000Y-43541000D01*
X151068000Y-43541000D01*
X151068000Y-44851000D01*
G37*
X151068000Y-46731000D02*
X149608000Y-46731000D01*
X149608000Y-45421000D01*
X151068000Y-45421000D01*
X151068000Y-46731000D01*
G36*
X151068000Y-46731000D02*
G01*
X149608000Y-46731000D01*
X149608000Y-45421000D01*
X151068000Y-45421000D01*
X151068000Y-46731000D01*
G37*
X153098000Y-42971000D02*
X151638000Y-42971000D01*
X151638000Y-41661000D01*
X153098000Y-41661000D01*
X153098000Y-42971000D01*
G36*
X153098000Y-42971000D02*
G01*
X151638000Y-42971000D01*
X151638000Y-41661000D01*
X153098000Y-41661000D01*
X153098000Y-42971000D01*
G37*
X153098000Y-44851000D02*
X151638000Y-44851000D01*
X151638000Y-43541000D01*
X153098000Y-43541000D01*
X153098000Y-44851000D01*
G36*
X153098000Y-44851000D02*
G01*
X151638000Y-44851000D01*
X151638000Y-43541000D01*
X153098000Y-43541000D01*
X153098000Y-44851000D01*
G37*
X153098000Y-46731000D02*
X151638000Y-46731000D01*
X151638000Y-45421000D01*
X153098000Y-45421000D01*
X153098000Y-46731000D01*
G36*
X153098000Y-46731000D02*
G01*
X151638000Y-46731000D01*
X151638000Y-45421000D01*
X153098000Y-45421000D01*
X153098000Y-46731000D01*
G37*
%TD*%
D11*
%TO.C,D3*%
X133096000Y-72644000D03*
X133096000Y-74394000D03*
%TD*%
D12*
%TO.C,R7*%
X129540000Y-72136000D03*
X129540000Y-75061000D03*
%TD*%
D11*
%TO.C,D5*%
X160020000Y-72785000D03*
X160020000Y-74535000D03*
%TD*%
D13*
%TO.C,D7*%
X117207000Y-41148000D03*
X115457000Y-41148000D03*
%TD*%
D11*
%TO.C,D8*%
X103124000Y-59718000D03*
X103124000Y-61468000D03*
%TD*%
%TO.C,D2*%
X119380000Y-72785000D03*
X119380000Y-74535000D03*
%TD*%
D14*
%TO.C,U1*%
X143688000Y-41906000D03*
X143688000Y-46486000D03*
%TD*%
D15*
%TO.C,R10*%
X112145000Y-41148000D03*
X109220000Y-41148000D03*
%TD*%
D16*
%TO.C,C3*%
X146044000Y-53340000D03*
X151644000Y-53340000D03*
%TD*%
D13*
%TO.C,D6*%
X124319000Y-41148000D03*
X122569000Y-41148000D03*
%TD*%
D17*
%TO.C,R11*%
X104140000Y-66994500D03*
X104140000Y-64069500D03*
%TD*%
D11*
%TO.C,D4*%
X146812000Y-72785000D03*
X146812000Y-74535000D03*
%TD*%
D15*
%TO.C,R5*%
X158049500Y-42672000D03*
X160974500Y-42672000D03*
%TD*%
D12*
%TO.C,R6*%
X115824000Y-72197500D03*
X115824000Y-75122500D03*
%TD*%
%TO.C,R8*%
X143256000Y-72197500D03*
X143256000Y-75122500D03*
%TD*%
D13*
%TO.C,D1*%
X160387000Y-45212000D03*
X158637000Y-45212000D03*
%TD*%
D12*
%TO.C,R9*%
X156464000Y-72197500D03*
X156464000Y-75122500D03*
%TD*%
M02*
