%TF.GenerationSoftware,KiCad,Pcbnew,7.99.0-2684-g11de95778b*%
%TF.CreationDate,2023-11-20T14:54:01-05:00*%
%TF.ProjectId,ADC_MCPV01,4144435f-4d43-4505-9630-312e6b696361,rev?*%
%TF.SameCoordinates,Original*%
%TF.FileFunction,Soldermask,Top*%
%TF.FilePolarity,Negative*%
%FSLAX46Y46*%
G04 Gerber Fmt 4.6, Leading zero omitted, Abs format (unit mm)*
G04 Created by KiCad (PCBNEW 7.99.0-2684-g11de95778b) date 2023-11-20 14:54:01*
%MOMM*%
%LPD*%
G01*
G04 APERTURE LIST*
G04 Aperture macros list*
%AMRoundRect*
0 Rectangle with rounded corners*
0 $1 Rounding radius*
0 $2 $3 $4 $5 $6 $7 $8 $9 X,Y pos of 4 corners*
0 Add a 4 corners polygon primitive as box body*
4,1,4,$2,$3,$4,$5,$6,$7,$8,$9,$2,$3,0*
0 Add four circle primitives for the rounded corners*
1,1,$1+$1,$2,$3*
1,1,$1+$1,$4,$5*
1,1,$1+$1,$6,$7*
1,1,$1+$1,$8,$9*
0 Add four rect primitives between the rounded corners*
20,1,$1+$1,$2,$3,$4,$5,0*
20,1,$1+$1,$4,$5,$6,$7,0*
20,1,$1+$1,$6,$7,$8,$9,0*
20,1,$1+$1,$8,$9,$2,$3,0*%
G04 Aperture macros list end*
%ADD10O,1.700000X1.700000*%
%ADD11R,1.700000X1.700000*%
%ADD12C,5.700000*%
%ADD13O,1.905000X2.000000*%
%ADD14R,1.905000X2.000000*%
%ADD15RoundRect,0.237500X-0.237500X0.287500X-0.237500X-0.287500X0.237500X-0.287500X0.237500X0.287500X0*%
%ADD16RoundRect,0.250000X-0.625000X0.312500X-0.625000X-0.312500X0.625000X-0.312500X0.625000X0.312500X0*%
%ADD17RoundRect,0.237500X0.287500X0.237500X-0.287500X0.237500X-0.287500X-0.237500X0.287500X-0.237500X0*%
%ADD18R,3.500000X3.500000*%
%ADD19RoundRect,0.750000X-1.000000X0.750000X-1.000000X-0.750000X1.000000X-0.750000X1.000000X0.750000X0*%
%ADD20RoundRect,0.875000X-0.875000X0.875000X-0.875000X-0.875000X0.875000X-0.875000X0.875000X0.875000X0*%
%ADD21RoundRect,0.102000X-1.415000X-0.485000X1.415000X-0.485000X1.415000X0.485000X-1.415000X0.485000X0*%
%ADD22RoundRect,0.102000X-3.045000X-2.815000X3.045000X-2.815000X3.045000X2.815000X-3.045000X2.815000X0*%
%ADD23R,2.600000X2.600000*%
%ADD24C,2.600000*%
%ADD25RoundRect,0.250000X0.312500X0.625000X-0.312500X0.625000X-0.312500X-0.625000X0.312500X-0.625000X0*%
%ADD26RoundRect,0.250000X-1.500000X-0.550000X1.500000X-0.550000X1.500000X0.550000X-1.500000X0.550000X0*%
%ADD27RoundRect,0.250000X-0.620000X-0.845000X0.620000X-0.845000X0.620000X0.845000X-0.620000X0.845000X0*%
%ADD28O,1.740000X2.190000*%
%ADD29RoundRect,0.250000X0.625000X-0.312500X0.625000X0.312500X-0.625000X0.312500X-0.625000X-0.312500X0*%
G04 APERTURE END LIST*
D10*
%TO.C,V_IN1*%
X134112000Y-52324000D03*
X134112000Y-49784000D03*
D11*
X134112000Y-47244000D03*
%TD*%
D12*
%TO.C,REF\u002A\u002A*%
X102616000Y-85344000D03*
%TD*%
%TO.C,REF\u002A\u002A*%
X102616000Y-30734000D03*
%TD*%
%TO.C,REF\u002A\u002A*%
X167894000Y-30734000D03*
%TD*%
D13*
%TO.C,U3*%
X111760000Y-59690000D03*
X114300000Y-59690000D03*
D14*
X116840000Y-59690000D03*
%TD*%
D11*
%TO.C,JP_VDC1*%
X124460000Y-47244000D03*
D10*
X124460000Y-49784000D03*
X124460000Y-52324000D03*
%TD*%
D15*
%TO.C,D3*%
X133096000Y-72644000D03*
X133096000Y-74394000D03*
%TD*%
D12*
%TO.C,REF\u002A\u002A*%
X167894000Y-85344000D03*
%TD*%
D16*
%TO.C,R7*%
X129540000Y-72136000D03*
X129540000Y-75061000D03*
%TD*%
D15*
%TO.C,D5*%
X160020000Y-72785000D03*
X160020000Y-74535000D03*
%TD*%
D11*
%TO.C,J18*%
X151409000Y-72410000D03*
D10*
X151409000Y-74950000D03*
%TD*%
D11*
%TO.C,DC2*%
X125491000Y-60452000D03*
D10*
X128031000Y-60452000D03*
X130571000Y-60452000D03*
%TD*%
D17*
%TO.C,D7*%
X117207000Y-41148000D03*
X115457000Y-41148000D03*
%TD*%
D15*
%TO.C,D8*%
X103124000Y-59718000D03*
X103124000Y-61468000D03*
%TD*%
D18*
%TO.C,J6*%
X155956000Y-35972000D03*
D19*
X155956000Y-29972000D03*
D20*
X151256000Y-32972000D03*
%TD*%
D11*
%TO.C,JP_ADR1*%
X166131000Y-48768000D03*
D10*
X168671000Y-48768000D03*
X171211000Y-48768000D03*
%TD*%
D11*
%TO.C,DC3*%
X138684000Y-60452000D03*
D10*
X141224000Y-60452000D03*
X143764000Y-60452000D03*
%TD*%
D15*
%TO.C,D2*%
X119380000Y-72785000D03*
X119380000Y-74535000D03*
%TD*%
D11*
%TO.C,J13*%
X121920000Y-36576000D03*
D10*
X121920000Y-34036000D03*
X119380000Y-36576000D03*
X119380000Y-34036000D03*
X116840000Y-36576000D03*
X116840000Y-34036000D03*
X114300000Y-36576000D03*
X114300000Y-34036000D03*
X111760000Y-36576000D03*
X111760000Y-34036000D03*
X109220000Y-36576000D03*
X109220000Y-34036000D03*
%TD*%
D11*
%TO.C,J15*%
X110769000Y-72410000D03*
D10*
X110769000Y-74950000D03*
%TD*%
D11*
%TO.C,J17*%
X138201000Y-72410000D03*
D10*
X138201000Y-74950000D03*
%TD*%
D21*
%TO.C,U1*%
X143688000Y-41906000D03*
D22*
X150338000Y-44196000D03*
D21*
X143688000Y-46486000D03*
%TD*%
D23*
%TO.C,J5*%
X108204000Y-53340000D03*
D24*
X108204000Y-48260000D03*
%TD*%
D11*
%TO.C,J14*%
X131064000Y-82296000D03*
D10*
X131064000Y-84836000D03*
X133604000Y-82296000D03*
X133604000Y-84836000D03*
X136144000Y-82296000D03*
X136144000Y-84836000D03*
X138684000Y-82296000D03*
X138684000Y-84836000D03*
X141224000Y-82296000D03*
X141224000Y-84836000D03*
X143764000Y-82296000D03*
X143764000Y-84836000D03*
X146304000Y-82296000D03*
X146304000Y-84836000D03*
X148844000Y-82296000D03*
X148844000Y-84836000D03*
X151384000Y-82296000D03*
X151384000Y-84836000D03*
X153924000Y-82296000D03*
X153924000Y-84836000D03*
%TD*%
D25*
%TO.C,R10*%
X112145000Y-41148000D03*
X109220000Y-41148000D03*
%TD*%
D26*
%TO.C,C3*%
X146044000Y-53340000D03*
X151644000Y-53340000D03*
%TD*%
D27*
%TO.C,J1*%
X110744000Y-67056000D03*
D28*
X113284000Y-67056000D03*
X115824000Y-67056000D03*
X118364000Y-67056000D03*
%TD*%
D17*
%TO.C,D6*%
X124319000Y-41148000D03*
X122569000Y-41148000D03*
%TD*%
D11*
%TO.C,J11*%
X144780000Y-36576000D03*
D10*
X144780000Y-34036000D03*
X142240000Y-36576000D03*
X142240000Y-34036000D03*
X139700000Y-36576000D03*
X139700000Y-34036000D03*
X137160000Y-36576000D03*
X137160000Y-34036000D03*
X134620000Y-36576000D03*
X134620000Y-34036000D03*
X132080000Y-36576000D03*
X132080000Y-34036000D03*
X129540000Y-36576000D03*
X129540000Y-34036000D03*
X127000000Y-36576000D03*
X127000000Y-34036000D03*
%TD*%
D27*
%TO.C,J2*%
X124460000Y-67056000D03*
D28*
X127000000Y-67056000D03*
X129540000Y-67056000D03*
X132080000Y-67056000D03*
%TD*%
D27*
%TO.C,J4*%
X151384000Y-67056000D03*
D28*
X153924000Y-67056000D03*
X156464000Y-67056000D03*
X159004000Y-67056000D03*
%TD*%
D29*
%TO.C,R11*%
X104140000Y-66994500D03*
X104140000Y-64069500D03*
%TD*%
D15*
%TO.C,D4*%
X146812000Y-72785000D03*
X146812000Y-74535000D03*
%TD*%
D25*
%TO.C,R5*%
X158049500Y-42672000D03*
X160974500Y-42672000D03*
%TD*%
D11*
%TO.C,J12*%
X109220000Y-82296000D03*
D10*
X109220000Y-84836000D03*
X111760000Y-82296000D03*
X111760000Y-84836000D03*
X114300000Y-82296000D03*
X114300000Y-84836000D03*
X116840000Y-82296000D03*
X116840000Y-84836000D03*
X119380000Y-82296000D03*
X119380000Y-84836000D03*
X121920000Y-82296000D03*
X121920000Y-84836000D03*
X124460000Y-82296000D03*
X124460000Y-84836000D03*
X127000000Y-82296000D03*
X127000000Y-84836000D03*
%TD*%
D16*
%TO.C,R6*%
X115824000Y-72197500D03*
X115824000Y-75122500D03*
%TD*%
%TO.C,R8*%
X143256000Y-72197500D03*
X143256000Y-75122500D03*
%TD*%
D11*
%TO.C,J16*%
X124485000Y-72410000D03*
D10*
X124485000Y-74950000D03*
%TD*%
D11*
%TO.C,J19*%
X119380000Y-51308000D03*
D10*
X119380000Y-48768000D03*
%TD*%
D17*
%TO.C,D1*%
X160387000Y-45212000D03*
X158637000Y-45212000D03*
%TD*%
D11*
%TO.C,JP_ADR2*%
X166131000Y-55372000D03*
D10*
X168671000Y-55372000D03*
X171211000Y-55372000D03*
%TD*%
D11*
%TO.C,DC4*%
X152400000Y-60452000D03*
D10*
X154940000Y-60452000D03*
X157480000Y-60452000D03*
%TD*%
D16*
%TO.C,R9*%
X156464000Y-72197500D03*
X156464000Y-75122500D03*
%TD*%
D27*
%TO.C,J3*%
X137922000Y-67076000D03*
D28*
X140462000Y-67076000D03*
X143002000Y-67076000D03*
X145542000Y-67076000D03*
%TD*%
D11*
%TO.C,J8*%
X109220000Y-78740000D03*
D10*
X111760000Y-78740000D03*
X114300000Y-78740000D03*
X116840000Y-78740000D03*
X119380000Y-78740000D03*
X121920000Y-78740000D03*
X124460000Y-78740000D03*
X127000000Y-78740000D03*
%TD*%
D11*
%TO.C,J7*%
X144780000Y-30480000D03*
D10*
X142240000Y-30480000D03*
X139700000Y-30480000D03*
X137160000Y-30480000D03*
X134620000Y-30480000D03*
X132080000Y-30480000D03*
X129540000Y-30480000D03*
X127000000Y-30480000D03*
%TD*%
D11*
%TO.C,J9*%
X121920000Y-30480000D03*
D10*
X119380000Y-30480000D03*
X116840000Y-30480000D03*
X114300000Y-30480000D03*
X111760000Y-30480000D03*
X109220000Y-30480000D03*
%TD*%
D11*
%TO.C,J10*%
X131064000Y-78740000D03*
D10*
X133604000Y-78740000D03*
X136144000Y-78740000D03*
X138684000Y-78740000D03*
X141224000Y-78740000D03*
X143764000Y-78740000D03*
X146304000Y-78740000D03*
X148844000Y-78740000D03*
X151384000Y-78740000D03*
X153924000Y-78740000D03*
%TD*%
M02*
