M48
; DRILL file {KiCad 7.99.0-2684-g11de95778b} date 2023-11-20T14:54:10-0500
; FORMAT={-:-/ absolute / inch / decimal}
; #@! TF.CreationDate,2023-11-20T14:54:10-05:00
; #@! TF.GenerationSoftware,Kicad,Pcbnew,7.99.0-2684-g11de95778b
; #@! TF.FileFunction,Plated,1,2,PTH
FMAT,2
INCH
; #@! TA.AperFunction,Plated,PTH,ViaDrill
T1C0.0157
; #@! TA.AperFunction,Plated,PTH,ComponentDrill
T2C0.0394
; #@! TA.AperFunction,Plated,PTH,ComponentDrill
T3C0.0433
; #@! TA.AperFunction,Plated,PTH,ComponentDrill
T4C0.0469
; #@! TA.AperFunction,Plated,PTH,ComponentDrill
T5C0.0512
; #@! TA.AperFunction,Plated,PTH,ComponentDrill
T6C0.1260
%
G90
G05
T1
X4.26Y-2.48
X6.08Y-2.1
X6.3256Y-2.0736
X6.37Y-2.27
X6.38Y-1.88
X6.47Y-2.24
X6.49Y-1.75
T2
X4.3Y-1.2
X4.3Y-1.34
X4.3Y-1.44
X4.3Y-3.1
X4.3Y-3.24
X4.3Y-3.34
X4.361Y-2.8508
X4.361Y-2.9508
X4.4Y-1.2
X4.4Y-1.34
X4.4Y-1.44
X4.4Y-3.1
X4.4Y-3.24
X4.4Y-3.34
X4.5Y-1.2
X4.5Y-1.34
X4.5Y-1.44
X4.5Y-3.1
X4.5Y-3.24
X4.5Y-3.34
X4.6Y-1.2
X4.6Y-1.34
X4.6Y-1.44
X4.6Y-3.1
X4.6Y-3.24
X4.6Y-3.34
X4.7Y-1.2
X4.7Y-1.34
X4.7Y-1.44
X4.7Y-1.92
X4.7Y-2.02
X4.7Y-3.1
X4.7Y-3.24
X4.7Y-3.34
X4.8Y-1.2
X4.8Y-1.34
X4.8Y-1.44
X4.8Y-3.1
X4.8Y-3.24
X4.8Y-3.34
X4.9Y-1.86
X4.9Y-1.96
X4.9Y-2.06
X4.9Y-3.1
X4.9Y-3.24
X4.9Y-3.34
X4.901Y-2.8508
X4.901Y-2.9508
X4.9406Y-2.38
X5.0Y-1.2
X5.0Y-1.34
X5.0Y-1.44
X5.0Y-3.1
X5.0Y-3.24
X5.0Y-3.34
X5.0406Y-2.38
X5.1Y-1.2
X5.1Y-1.34
X5.1Y-1.44
X5.1406Y-2.38
X5.16Y-3.1
X5.16Y-3.24
X5.16Y-3.34
X5.2Y-1.2
X5.2Y-1.34
X5.2Y-1.44
X5.26Y-3.1
X5.26Y-3.24
X5.26Y-3.34
X5.28Y-1.86
X5.28Y-1.96
X5.28Y-2.06
X5.3Y-1.2
X5.3Y-1.34
X5.3Y-1.44
X5.36Y-3.1
X5.36Y-3.24
X5.36Y-3.34
X5.4Y-1.2
X5.4Y-1.34
X5.4Y-1.44
X5.441Y-2.8508
X5.441Y-2.9508
X5.46Y-2.38
X5.46Y-3.1
X5.46Y-3.24
X5.46Y-3.34
X5.5Y-1.2
X5.5Y-1.34
X5.5Y-1.44
X5.56Y-2.38
X5.56Y-3.1
X5.56Y-3.24
X5.56Y-3.34
X5.6Y-1.2
X5.6Y-1.34
X5.6Y-1.44
X5.66Y-2.38
X5.66Y-3.1
X5.66Y-3.24
X5.66Y-3.34
X5.7Y-1.2
X5.7Y-1.34
X5.7Y-1.44
X5.76Y-3.1
X5.76Y-3.24
X5.76Y-3.34
X5.86Y-3.1
X5.86Y-3.24
X5.86Y-3.34
X5.96Y-3.1
X5.96Y-3.24
X5.96Y-3.34
X5.961Y-2.8508
X5.961Y-2.9508
X6.0Y-2.38
X6.06Y-3.1
X6.06Y-3.24
X6.06Y-3.34
X6.1Y-2.38
X6.2Y-2.38
X6.5406Y-1.92
X6.5406Y-2.18
X6.6406Y-1.92
X6.6406Y-2.18
X6.7406Y-1.92
X6.7406Y-2.18
T3
X4.4Y-2.35
X4.5Y-2.35
X4.6Y-2.35
T4
X4.36Y-2.64
X4.46Y-2.64
X4.56Y-2.64
X4.66Y-2.64
X4.9Y-2.64
X5.0Y-2.64
X5.1Y-2.64
X5.2Y-2.64
X5.43Y-2.6408
X5.53Y-2.6408
X5.63Y-2.6408
X5.73Y-2.6408
X5.96Y-2.64
X6.06Y-2.64
X6.16Y-2.64
X6.26Y-2.64
T5
X4.26Y-1.9
X4.26Y-2.1
T6
X4.04Y-1.21
X4.04Y-3.36
X6.61Y-1.21
X6.61Y-3.36
T2
G00X5.955Y-1.2587
M15
G01X5.955Y-1.3375
M16
G05
G00X6.1794Y-1.18
M15
G01X6.1006Y-1.18
M16
G05
G00X6.1794Y-1.4162
M15
G01X6.1006Y-1.4162
M16
G05
T0
M30
