%TF.GenerationSoftware,KiCad,Pcbnew,7.99.0-2684-g11de95778b*%
%TF.CreationDate,2023-11-20T14:54:01-05:00*%
%TF.ProjectId,ADC_MCPV01,4144435f-4d43-4505-9630-312e6b696361,rev?*%
%TF.SameCoordinates,Original*%
%TF.FileFunction,Legend,Top*%
%TF.FilePolarity,Positive*%
%FSLAX46Y46*%
G04 Gerber Fmt 4.6, Leading zero omitted, Abs format (unit mm)*
G04 Created by KiCad (PCBNEW 7.99.0-2684-g11de95778b) date 2023-11-20 14:54:01*
%MOMM*%
%LPD*%
G01*
G04 APERTURE LIST*
%ADD10C,0.152400*%
%ADD11C,0.254000*%
%ADD12C,0.762000*%
%ADD13C,0.200000*%
%ADD14C,0.127000*%
%ADD15C,0.101600*%
%ADD16C,0.150000*%
%ADD17C,0.120000*%
G04 APERTURE END LIST*
D10*
X114206739Y-57271735D02*
X113868072Y-56787926D01*
X113626167Y-57271735D02*
X113626167Y-56255735D01*
X113626167Y-56255735D02*
X114013215Y-56255735D01*
X114013215Y-56255735D02*
X114109977Y-56304116D01*
X114109977Y-56304116D02*
X114158358Y-56352497D01*
X114158358Y-56352497D02*
X114206739Y-56449259D01*
X114206739Y-56449259D02*
X114206739Y-56594402D01*
X114206739Y-56594402D02*
X114158358Y-56691164D01*
X114158358Y-56691164D02*
X114109977Y-56739545D01*
X114109977Y-56739545D02*
X114013215Y-56787926D01*
X114013215Y-56787926D02*
X113626167Y-56787926D01*
X115029215Y-57223355D02*
X114932453Y-57271735D01*
X114932453Y-57271735D02*
X114738929Y-57271735D01*
X114738929Y-57271735D02*
X114642167Y-57223355D01*
X114642167Y-57223355D02*
X114593786Y-57126593D01*
X114593786Y-57126593D02*
X114593786Y-56739545D01*
X114593786Y-56739545D02*
X114642167Y-56642783D01*
X114642167Y-56642783D02*
X114738929Y-56594402D01*
X114738929Y-56594402D02*
X114932453Y-56594402D01*
X114932453Y-56594402D02*
X115029215Y-56642783D01*
X115029215Y-56642783D02*
X115077596Y-56739545D01*
X115077596Y-56739545D02*
X115077596Y-56836307D01*
X115077596Y-56836307D02*
X114593786Y-56933069D01*
X115948453Y-56594402D02*
X115948453Y-57416878D01*
X115948453Y-57416878D02*
X115900072Y-57513640D01*
X115900072Y-57513640D02*
X115851691Y-57562021D01*
X115851691Y-57562021D02*
X115754929Y-57610402D01*
X115754929Y-57610402D02*
X115609786Y-57610402D01*
X115609786Y-57610402D02*
X115513024Y-57562021D01*
X115948453Y-57223355D02*
X115851691Y-57271735D01*
X115851691Y-57271735D02*
X115658167Y-57271735D01*
X115658167Y-57271735D02*
X115561405Y-57223355D01*
X115561405Y-57223355D02*
X115513024Y-57174974D01*
X115513024Y-57174974D02*
X115464643Y-57078212D01*
X115464643Y-57078212D02*
X115464643Y-56787926D01*
X115464643Y-56787926D02*
X115513024Y-56691164D01*
X115513024Y-56691164D02*
X115561405Y-56642783D01*
X115561405Y-56642783D02*
X115658167Y-56594402D01*
X115658167Y-56594402D02*
X115851691Y-56594402D01*
X115851691Y-56594402D02*
X115948453Y-56642783D01*
X117641786Y-56255735D02*
X117448262Y-56255735D01*
X117448262Y-56255735D02*
X117351500Y-56304116D01*
X117351500Y-56304116D02*
X117303119Y-56352497D01*
X117303119Y-56352497D02*
X117206357Y-56497640D01*
X117206357Y-56497640D02*
X117157976Y-56691164D01*
X117157976Y-56691164D02*
X117157976Y-57078212D01*
X117157976Y-57078212D02*
X117206357Y-57174974D01*
X117206357Y-57174974D02*
X117254738Y-57223355D01*
X117254738Y-57223355D02*
X117351500Y-57271735D01*
X117351500Y-57271735D02*
X117545024Y-57271735D01*
X117545024Y-57271735D02*
X117641786Y-57223355D01*
X117641786Y-57223355D02*
X117690167Y-57174974D01*
X117690167Y-57174974D02*
X117738548Y-57078212D01*
X117738548Y-57078212D02*
X117738548Y-56836307D01*
X117738548Y-56836307D02*
X117690167Y-56739545D01*
X117690167Y-56739545D02*
X117641786Y-56691164D01*
X117641786Y-56691164D02*
X117545024Y-56642783D01*
X117545024Y-56642783D02*
X117351500Y-56642783D01*
X117351500Y-56642783D02*
X117254738Y-56691164D01*
X117254738Y-56691164D02*
X117206357Y-56739545D01*
X117206357Y-56739545D02*
X117157976Y-56836307D01*
X118028833Y-56255735D02*
X118367500Y-57271735D01*
X118367500Y-57271735D02*
X118706167Y-56255735D01*
D11*
X174752251Y-39929715D02*
G75*
G02*
X174752251Y-39929715I-5334251J0D01*
G01*
D12*
X170180000Y-38100000D02*
X173101000Y-38100000D01*
X165354000Y-38100000D02*
X168402000Y-38100000D01*
X166624000Y-40640000D02*
X171958000Y-40640000D01*
X168402000Y-38100000D02*
X168402000Y-43180000D01*
X170180000Y-38100000D02*
X170180000Y-43180000D01*
D10*
X161930264Y-29322358D02*
X161930264Y-28741786D01*
X161930264Y-29032072D02*
X162946264Y-29032072D01*
X162946264Y-29032072D02*
X162801121Y-28935310D01*
X162801121Y-28935310D02*
X162704359Y-28838548D01*
X162704359Y-28838548D02*
X162655978Y-28741786D01*
X162849502Y-29709405D02*
X162897883Y-29757786D01*
X162897883Y-29757786D02*
X162946264Y-29854548D01*
X162946264Y-29854548D02*
X162946264Y-30096453D01*
X162946264Y-30096453D02*
X162897883Y-30193215D01*
X162897883Y-30193215D02*
X162849502Y-30241596D01*
X162849502Y-30241596D02*
X162752740Y-30289977D01*
X162752740Y-30289977D02*
X162655978Y-30289977D01*
X162655978Y-30289977D02*
X162510835Y-30241596D01*
X162510835Y-30241596D02*
X161930264Y-29661024D01*
X161930264Y-29661024D02*
X161930264Y-30289977D01*
X162946264Y-30580262D02*
X161930264Y-30918929D01*
X161930264Y-30918929D02*
X162946264Y-31257596D01*
X162946264Y-32660643D02*
X162220549Y-32660643D01*
X162220549Y-32660643D02*
X162075406Y-32612262D01*
X162075406Y-32612262D02*
X161978645Y-32515500D01*
X161978645Y-32515500D02*
X161930264Y-32370357D01*
X161930264Y-32370357D02*
X161930264Y-32273595D01*
X161930264Y-33579881D02*
X162462454Y-33579881D01*
X162462454Y-33579881D02*
X162559216Y-33531500D01*
X162559216Y-33531500D02*
X162607597Y-33434738D01*
X162607597Y-33434738D02*
X162607597Y-33241214D01*
X162607597Y-33241214D02*
X162559216Y-33144452D01*
X161978645Y-33579881D02*
X161930264Y-33483119D01*
X161930264Y-33483119D02*
X161930264Y-33241214D01*
X161930264Y-33241214D02*
X161978645Y-33144452D01*
X161978645Y-33144452D02*
X162075406Y-33096071D01*
X162075406Y-33096071D02*
X162172168Y-33096071D01*
X162172168Y-33096071D02*
X162268930Y-33144452D01*
X162268930Y-33144452D02*
X162317311Y-33241214D01*
X162317311Y-33241214D02*
X162317311Y-33483119D01*
X162317311Y-33483119D02*
X162365692Y-33579881D01*
X161978645Y-34499119D02*
X161930264Y-34402357D01*
X161930264Y-34402357D02*
X161930264Y-34208833D01*
X161930264Y-34208833D02*
X161978645Y-34112071D01*
X161978645Y-34112071D02*
X162027025Y-34063690D01*
X162027025Y-34063690D02*
X162123787Y-34015309D01*
X162123787Y-34015309D02*
X162414073Y-34015309D01*
X162414073Y-34015309D02*
X162510835Y-34063690D01*
X162510835Y-34063690D02*
X162559216Y-34112071D01*
X162559216Y-34112071D02*
X162607597Y-34208833D01*
X162607597Y-34208833D02*
X162607597Y-34402357D01*
X162607597Y-34402357D02*
X162559216Y-34499119D01*
X161930264Y-34934547D02*
X162946264Y-34934547D01*
X162317311Y-35031309D02*
X161930264Y-35321595D01*
X162607597Y-35321595D02*
X162220549Y-34934547D01*
D13*
X138684000Y-48768000D02*
X140716000Y-48768000D01*
X157480000Y-52832000D02*
X163576000Y-52832000D01*
X163576000Y-54864000D01*
X157480000Y-54864000D01*
X157480000Y-52832000D01*
X162052000Y-60452000D02*
X162052000Y-58420000D01*
X157480000Y-49784000D02*
X163576000Y-49784000D01*
X163576000Y-51816000D01*
X157480000Y-51816000D01*
X157480000Y-49784000D01*
X108458000Y-64008000D02*
X172466000Y-64008000D01*
X172466000Y-70612000D01*
X108458000Y-70612000D01*
X108458000Y-64008000D01*
X161544000Y-52832000D02*
X161544000Y-54864000D01*
X131064000Y-50800000D02*
X129032000Y-50800000D01*
X159512000Y-51816000D02*
X157480000Y-49784000D01*
X140716000Y-48768000D02*
X138684000Y-50800000D01*
X136144000Y-48768000D02*
X138176000Y-46736000D01*
X159512000Y-51816000D02*
X161544000Y-49784000D01*
X126492000Y-48768000D02*
X128524000Y-48768000D01*
X136144000Y-48768000D02*
X138176000Y-50800000D01*
X136144000Y-46736000D02*
X138176000Y-46736000D01*
X138176000Y-52832000D01*
X136144000Y-52832000D01*
X136144000Y-46736000D01*
X161544000Y-51816000D02*
X159512000Y-49784000D01*
X126492000Y-50800000D02*
X128524000Y-48768000D01*
X161544000Y-49784000D02*
X161544000Y-51816000D01*
X161544000Y-52832000D02*
X163576000Y-54864000D01*
X122428000Y-54356000D02*
X122428000Y-56388000D01*
X160020000Y-60452000D02*
X162052000Y-58420000D01*
X164084000Y-58420000D02*
X164084000Y-60452000D01*
X157480000Y-51816000D02*
X159512000Y-49784000D01*
X132080000Y-54864000D02*
X133604000Y-55372000D01*
X162052000Y-60960000D02*
X164084000Y-62992000D01*
X126492000Y-46736000D02*
X128524000Y-46736000D01*
X128524000Y-52832000D01*
X126492000Y-52832000D01*
X126492000Y-46736000D01*
X131064000Y-50800000D02*
X129032000Y-52832000D01*
X164084000Y-60452000D02*
X162052000Y-58420000D01*
X162052000Y-62992000D02*
X162052000Y-60960000D01*
X166116000Y-60960000D02*
X164084000Y-62992000D01*
X160020000Y-58420000D02*
X166116000Y-58420000D01*
X166116000Y-60452000D01*
X160020000Y-60452000D01*
X160020000Y-58420000D01*
X139700000Y-54864000D02*
X132080000Y-54864000D01*
X159512000Y-52832000D02*
X161544000Y-54864000D01*
X164084000Y-60960000D02*
X162052000Y-62992000D01*
X162052000Y-60452000D02*
X164084000Y-58420000D01*
X131572000Y-56388000D02*
X131572000Y-46228000D01*
X164084000Y-60960000D02*
X166116000Y-62992000D01*
X160020000Y-60960000D02*
X166116000Y-60960000D01*
X166116000Y-62992000D01*
X160020000Y-62992000D01*
X160020000Y-60960000D01*
X164084000Y-60960000D02*
X164084000Y-62992000D01*
X147828000Y-57912000D02*
X147828000Y-63500000D01*
X131064000Y-50800000D02*
X129032000Y-48768000D01*
X131064000Y-48768000D02*
X129032000Y-50800000D01*
X128524000Y-50800000D02*
X126492000Y-50800000D01*
X140716000Y-50800000D02*
X138684000Y-50800000D01*
X159512000Y-51816000D02*
X159512000Y-49784000D01*
X138684000Y-46736000D02*
X140716000Y-46736000D01*
X140716000Y-52832000D01*
X138684000Y-52832000D01*
X138684000Y-46736000D01*
X134620000Y-57912000D02*
X134620000Y-63500000D01*
X120904000Y-57912000D02*
X172720000Y-57912000D01*
X172720000Y-63500000D01*
X120904000Y-63500000D01*
X120904000Y-57912000D01*
X126492000Y-48768000D02*
X128524000Y-46736000D01*
X138176000Y-50800000D02*
X136144000Y-50800000D01*
X136144000Y-48768000D02*
X138176000Y-48768000D01*
X129032000Y-46736000D02*
X131064000Y-46736000D01*
X131064000Y-52832000D01*
X129032000Y-52832000D01*
X129032000Y-46736000D01*
X132080000Y-54864000D02*
X133604000Y-54356000D01*
X126492000Y-48768000D02*
X128524000Y-50800000D01*
X140716000Y-50800000D02*
X138684000Y-48768000D01*
X170688000Y-57912000D02*
X170688000Y-63500000D01*
X140716000Y-52832000D02*
X138684000Y-50800000D01*
X129032000Y-48768000D02*
X131064000Y-48768000D01*
X159512000Y-54864000D02*
X159512000Y-52832000D01*
X155448000Y-46228000D02*
X173228000Y-46228000D01*
X173228000Y-57404000D01*
X155448000Y-57404000D01*
X155448000Y-46228000D01*
X162052000Y-60452000D02*
X160020000Y-58420000D01*
X161544000Y-52832000D02*
X159512000Y-54864000D01*
X163576000Y-52832000D02*
X161544000Y-54864000D01*
X131064000Y-52832000D02*
X129032000Y-50800000D01*
X136144000Y-50800000D02*
X138176000Y-48768000D01*
X140716000Y-50800000D02*
X138684000Y-52832000D01*
X136144000Y-46736000D02*
X138176000Y-48768000D01*
X122428000Y-56388000D02*
X131572000Y-56388000D01*
X126492000Y-46736000D02*
X128524000Y-48768000D01*
X139700000Y-52832000D02*
X139700000Y-54864000D01*
D14*
X146621572Y-87532123D02*
X146657858Y-87459552D01*
X146657858Y-87459552D02*
X146657858Y-87350694D01*
X146657858Y-87350694D02*
X146621572Y-87241837D01*
X146621572Y-87241837D02*
X146549001Y-87169266D01*
X146549001Y-87169266D02*
X146476429Y-87132980D01*
X146476429Y-87132980D02*
X146331286Y-87096694D01*
X146331286Y-87096694D02*
X146222429Y-87096694D01*
X146222429Y-87096694D02*
X146077286Y-87132980D01*
X146077286Y-87132980D02*
X146004715Y-87169266D01*
X146004715Y-87169266D02*
X145932144Y-87241837D01*
X145932144Y-87241837D02*
X145895858Y-87350694D01*
X145895858Y-87350694D02*
X145895858Y-87423266D01*
X145895858Y-87423266D02*
X145932144Y-87532123D01*
X145932144Y-87532123D02*
X145968429Y-87568409D01*
X145968429Y-87568409D02*
X146222429Y-87568409D01*
X146222429Y-87568409D02*
X146222429Y-87423266D01*
X145895858Y-87894980D02*
X146657858Y-87894980D01*
X146657858Y-87894980D02*
X145895858Y-88330409D01*
X145895858Y-88330409D02*
X146657858Y-88330409D01*
X145895858Y-88693266D02*
X146657858Y-88693266D01*
X146657858Y-88693266D02*
X146657858Y-88874695D01*
X146657858Y-88874695D02*
X146621572Y-88983552D01*
X146621572Y-88983552D02*
X146549001Y-89056123D01*
X146549001Y-89056123D02*
X146476429Y-89092409D01*
X146476429Y-89092409D02*
X146331286Y-89128695D01*
X146331286Y-89128695D02*
X146222429Y-89128695D01*
X146222429Y-89128695D02*
X146077286Y-89092409D01*
X146077286Y-89092409D02*
X146004715Y-89056123D01*
X146004715Y-89056123D02*
X145932144Y-88983552D01*
X145932144Y-88983552D02*
X145895858Y-88874695D01*
X145895858Y-88874695D02*
X145895858Y-88693266D01*
D10*
X100716264Y-44562358D02*
X100716264Y-43981786D01*
X100716264Y-44272072D02*
X101732264Y-44272072D01*
X101732264Y-44272072D02*
X101587121Y-44175310D01*
X101587121Y-44175310D02*
X101490359Y-44078548D01*
X101490359Y-44078548D02*
X101441978Y-43981786D01*
X101635502Y-44949405D02*
X101683883Y-44997786D01*
X101683883Y-44997786D02*
X101732264Y-45094548D01*
X101732264Y-45094548D02*
X101732264Y-45336453D01*
X101732264Y-45336453D02*
X101683883Y-45433215D01*
X101683883Y-45433215D02*
X101635502Y-45481596D01*
X101635502Y-45481596D02*
X101538740Y-45529977D01*
X101538740Y-45529977D02*
X101441978Y-45529977D01*
X101441978Y-45529977D02*
X101296835Y-45481596D01*
X101296835Y-45481596D02*
X100716264Y-44901024D01*
X100716264Y-44901024D02*
X100716264Y-45529977D01*
X101732264Y-45820262D02*
X100716264Y-46158929D01*
X100716264Y-46158929D02*
X101732264Y-46497596D01*
X101103311Y-48384452D02*
X101103311Y-49158548D01*
X101103311Y-51964642D02*
X101103311Y-52738738D01*
X100716264Y-52351690D02*
X101490359Y-52351690D01*
X101248454Y-53996642D02*
X101248454Y-54335309D01*
X100716264Y-54480452D02*
X100716264Y-53996642D01*
X100716264Y-53996642D02*
X101732264Y-53996642D01*
X101732264Y-53996642D02*
X101732264Y-54480452D01*
X100716264Y-54819118D02*
X101393597Y-55351309D01*
X101393597Y-54819118D02*
X100716264Y-55351309D01*
X101393597Y-55593213D02*
X101393597Y-55980261D01*
X101732264Y-55738356D02*
X100861406Y-55738356D01*
X100861406Y-55738356D02*
X100764645Y-55786737D01*
X100764645Y-55786737D02*
X100716264Y-55883499D01*
X100716264Y-55883499D02*
X100716264Y-55980261D01*
D14*
X111569572Y-27152694D02*
X111569572Y-27515552D01*
X111351858Y-27080123D02*
X112113858Y-27334123D01*
X112113858Y-27334123D02*
X111351858Y-27588123D01*
X111859858Y-28168695D02*
X111351858Y-28168695D01*
X112150144Y-27987266D02*
X111605858Y-27805837D01*
X111605858Y-27805837D02*
X111605858Y-28277552D01*
X140077056Y-45321971D02*
X139593247Y-45660638D01*
X140077056Y-45902543D02*
X139061056Y-45902543D01*
X139061056Y-45902543D02*
X139061056Y-45515495D01*
X139061056Y-45515495D02*
X139109437Y-45418733D01*
X139109437Y-45418733D02*
X139157818Y-45370352D01*
X139157818Y-45370352D02*
X139254580Y-45321971D01*
X139254580Y-45321971D02*
X139399723Y-45321971D01*
X139399723Y-45321971D02*
X139496485Y-45370352D01*
X139496485Y-45370352D02*
X139544866Y-45418733D01*
X139544866Y-45418733D02*
X139593247Y-45515495D01*
X139593247Y-45515495D02*
X139593247Y-45902543D01*
X139544866Y-44886543D02*
X139544866Y-44547876D01*
X140077056Y-44402733D02*
X140077056Y-44886543D01*
X140077056Y-44886543D02*
X139061056Y-44886543D01*
X139061056Y-44886543D02*
X139061056Y-44402733D01*
X139109437Y-43435114D02*
X139061056Y-43531876D01*
X139061056Y-43531876D02*
X139061056Y-43677019D01*
X139061056Y-43677019D02*
X139109437Y-43822162D01*
X139109437Y-43822162D02*
X139206199Y-43918924D01*
X139206199Y-43918924D02*
X139302961Y-43967305D01*
X139302961Y-43967305D02*
X139496485Y-44015686D01*
X139496485Y-44015686D02*
X139641628Y-44015686D01*
X139641628Y-44015686D02*
X139835152Y-43967305D01*
X139835152Y-43967305D02*
X139931914Y-43918924D01*
X139931914Y-43918924D02*
X140028676Y-43822162D01*
X140028676Y-43822162D02*
X140077056Y-43677019D01*
X140077056Y-43677019D02*
X140077056Y-43580257D01*
X140077056Y-43580257D02*
X140028676Y-43435114D01*
X140028676Y-43435114D02*
X139980295Y-43386733D01*
X139980295Y-43386733D02*
X139641628Y-43386733D01*
X139641628Y-43386733D02*
X139641628Y-43580257D01*
X139061056Y-41693400D02*
X139061056Y-42177210D01*
X139061056Y-42177210D02*
X139544866Y-42225591D01*
X139544866Y-42225591D02*
X139496485Y-42177210D01*
X139496485Y-42177210D02*
X139448104Y-42080448D01*
X139448104Y-42080448D02*
X139448104Y-41838543D01*
X139448104Y-41838543D02*
X139496485Y-41741781D01*
X139496485Y-41741781D02*
X139544866Y-41693400D01*
X139544866Y-41693400D02*
X139641628Y-41645019D01*
X139641628Y-41645019D02*
X139883533Y-41645019D01*
X139883533Y-41645019D02*
X139980295Y-41693400D01*
X139980295Y-41693400D02*
X140028676Y-41741781D01*
X140028676Y-41741781D02*
X140077056Y-41838543D01*
X140077056Y-41838543D02*
X140077056Y-42080448D01*
X140077056Y-42080448D02*
X140028676Y-42177210D01*
X140028676Y-42177210D02*
X139980295Y-42225591D01*
X139061056Y-41354734D02*
X140077056Y-41016067D01*
X140077056Y-41016067D02*
X139061056Y-40677400D01*
X137537056Y-45902543D02*
X136521056Y-45902543D01*
X137537056Y-45418733D02*
X136521056Y-45418733D01*
X136521056Y-45418733D02*
X137537056Y-44838161D01*
X137537056Y-44838161D02*
X136521056Y-44838161D01*
X136521056Y-44160828D02*
X136521056Y-43967304D01*
X136521056Y-43967304D02*
X136569437Y-43870542D01*
X136569437Y-43870542D02*
X136666199Y-43773780D01*
X136666199Y-43773780D02*
X136859723Y-43725399D01*
X136859723Y-43725399D02*
X137198390Y-43725399D01*
X137198390Y-43725399D02*
X137391914Y-43773780D01*
X137391914Y-43773780D02*
X137488676Y-43870542D01*
X137488676Y-43870542D02*
X137537056Y-43967304D01*
X137537056Y-43967304D02*
X137537056Y-44160828D01*
X137537056Y-44160828D02*
X137488676Y-44257590D01*
X137488676Y-44257590D02*
X137391914Y-44354352D01*
X137391914Y-44354352D02*
X137198390Y-44402733D01*
X137198390Y-44402733D02*
X136859723Y-44402733D01*
X136859723Y-44402733D02*
X136666199Y-44354352D01*
X136666199Y-44354352D02*
X136569437Y-44257590D01*
X136569437Y-44257590D02*
X136521056Y-44160828D01*
X136521056Y-42032066D02*
X136521056Y-42515876D01*
X136521056Y-42515876D02*
X137004866Y-42564257D01*
X137004866Y-42564257D02*
X136956485Y-42515876D01*
X136956485Y-42515876D02*
X136908104Y-42419114D01*
X136908104Y-42419114D02*
X136908104Y-42177209D01*
X136908104Y-42177209D02*
X136956485Y-42080447D01*
X136956485Y-42080447D02*
X137004866Y-42032066D01*
X137004866Y-42032066D02*
X137101628Y-41983685D01*
X137101628Y-41983685D02*
X137343533Y-41983685D01*
X137343533Y-41983685D02*
X137440295Y-42032066D01*
X137440295Y-42032066D02*
X137488676Y-42080447D01*
X137488676Y-42080447D02*
X137537056Y-42177209D01*
X137537056Y-42177209D02*
X137537056Y-42419114D01*
X137537056Y-42419114D02*
X137488676Y-42515876D01*
X137488676Y-42515876D02*
X137440295Y-42564257D01*
X136521056Y-41693400D02*
X137537056Y-41354733D01*
X137537056Y-41354733D02*
X136521056Y-41016066D01*
D15*
X161175413Y-66783834D02*
X161429413Y-67926834D01*
X161429413Y-67926834D02*
X161683413Y-66783834D01*
X162263985Y-67872406D02*
X162191413Y-67926834D01*
X162191413Y-67926834D02*
X162046270Y-67926834D01*
X162046270Y-67926834D02*
X161973699Y-67872406D01*
X161973699Y-67872406D02*
X161937413Y-67817977D01*
X161937413Y-67817977D02*
X161901127Y-67709120D01*
X161901127Y-67709120D02*
X161901127Y-67382548D01*
X161901127Y-67382548D02*
X161937413Y-67273691D01*
X161937413Y-67273691D02*
X161973699Y-67219263D01*
X161973699Y-67219263D02*
X162046270Y-67164834D01*
X162046270Y-67164834D02*
X162191413Y-67164834D01*
X162191413Y-67164834D02*
X162263985Y-67219263D01*
X162917128Y-67872406D02*
X162844556Y-67926834D01*
X162844556Y-67926834D02*
X162699413Y-67926834D01*
X162699413Y-67926834D02*
X162626842Y-67872406D01*
X162626842Y-67872406D02*
X162590556Y-67817977D01*
X162590556Y-67817977D02*
X162554270Y-67709120D01*
X162554270Y-67709120D02*
X162554270Y-67382548D01*
X162554270Y-67382548D02*
X162590556Y-67273691D01*
X162590556Y-67273691D02*
X162626842Y-67219263D01*
X162626842Y-67219263D02*
X162699413Y-67164834D01*
X162699413Y-67164834D02*
X162844556Y-67164834D01*
X162844556Y-67164834D02*
X162917128Y-67219263D01*
X163243699Y-67491406D02*
X163824271Y-67491406D01*
X164150842Y-67600263D02*
X164513700Y-67600263D01*
X164078271Y-67926834D02*
X164332271Y-66783834D01*
X164332271Y-66783834D02*
X164586271Y-67926834D01*
X164840271Y-67164834D02*
X164840271Y-67926834D01*
X164840271Y-67273691D02*
X164876557Y-67219263D01*
X164876557Y-67219263D02*
X164949128Y-67164834D01*
X164949128Y-67164834D02*
X165057985Y-67164834D01*
X165057985Y-67164834D02*
X165130557Y-67219263D01*
X165130557Y-67219263D02*
X165166843Y-67328120D01*
X165166843Y-67328120D02*
X165166843Y-67926834D01*
X165457129Y-66783834D02*
X165965129Y-67926834D01*
X165965129Y-66783834D02*
X165457129Y-67926834D01*
X166255414Y-67491406D02*
X166835986Y-67491406D01*
X167198843Y-67926834D02*
X167198843Y-66783834D01*
X167198843Y-66783834D02*
X167489129Y-66783834D01*
X167489129Y-66783834D02*
X167561700Y-66838263D01*
X167561700Y-66838263D02*
X167597986Y-66892691D01*
X167597986Y-66892691D02*
X167634272Y-67001548D01*
X167634272Y-67001548D02*
X167634272Y-67164834D01*
X167634272Y-67164834D02*
X167597986Y-67273691D01*
X167597986Y-67273691D02*
X167561700Y-67328120D01*
X167561700Y-67328120D02*
X167489129Y-67382548D01*
X167489129Y-67382548D02*
X167198843Y-67382548D01*
X168105986Y-66783834D02*
X168178557Y-66783834D01*
X168178557Y-66783834D02*
X168251129Y-66838263D01*
X168251129Y-66838263D02*
X168287415Y-66892691D01*
X168287415Y-66892691D02*
X168323700Y-67001548D01*
X168323700Y-67001548D02*
X168359986Y-67219263D01*
X168359986Y-67219263D02*
X168359986Y-67491406D01*
X168359986Y-67491406D02*
X168323700Y-67709120D01*
X168323700Y-67709120D02*
X168287415Y-67817977D01*
X168287415Y-67817977D02*
X168251129Y-67872406D01*
X168251129Y-67872406D02*
X168178557Y-67926834D01*
X168178557Y-67926834D02*
X168105986Y-67926834D01*
X168105986Y-67926834D02*
X168033415Y-67872406D01*
X168033415Y-67872406D02*
X167997129Y-67817977D01*
X167997129Y-67817977D02*
X167960843Y-67709120D01*
X167960843Y-67709120D02*
X167924557Y-67491406D01*
X167924557Y-67491406D02*
X167924557Y-67219263D01*
X167924557Y-67219263D02*
X167960843Y-67001548D01*
X167960843Y-67001548D02*
X167997129Y-66892691D01*
X167997129Y-66892691D02*
X168033415Y-66838263D01*
X168033415Y-66838263D02*
X168105986Y-66783834D01*
X168613986Y-66783834D02*
X169121986Y-67926834D01*
X169121986Y-66783834D02*
X168613986Y-67926834D01*
X169412271Y-67491406D02*
X169992843Y-67491406D01*
X170754843Y-66838263D02*
X170682272Y-66783834D01*
X170682272Y-66783834D02*
X170573414Y-66783834D01*
X170573414Y-66783834D02*
X170464557Y-66838263D01*
X170464557Y-66838263D02*
X170391986Y-66947120D01*
X170391986Y-66947120D02*
X170355700Y-67055977D01*
X170355700Y-67055977D02*
X170319414Y-67273691D01*
X170319414Y-67273691D02*
X170319414Y-67436977D01*
X170319414Y-67436977D02*
X170355700Y-67654691D01*
X170355700Y-67654691D02*
X170391986Y-67763548D01*
X170391986Y-67763548D02*
X170464557Y-67872406D01*
X170464557Y-67872406D02*
X170573414Y-67926834D01*
X170573414Y-67926834D02*
X170645986Y-67926834D01*
X170645986Y-67926834D02*
X170754843Y-67872406D01*
X170754843Y-67872406D02*
X170791129Y-67817977D01*
X170791129Y-67817977D02*
X170791129Y-67436977D01*
X170791129Y-67436977D02*
X170645986Y-67436977D01*
X171117700Y-67926834D02*
X171117700Y-66783834D01*
X171117700Y-66783834D02*
X171553129Y-67926834D01*
X171553129Y-67926834D02*
X171553129Y-66783834D01*
X171915986Y-67926834D02*
X171915986Y-66783834D01*
X171915986Y-66783834D02*
X172097415Y-66783834D01*
X172097415Y-66783834D02*
X172206272Y-66838263D01*
X172206272Y-66838263D02*
X172278843Y-66947120D01*
X172278843Y-66947120D02*
X172315129Y-67055977D01*
X172315129Y-67055977D02*
X172351415Y-67273691D01*
X172351415Y-67273691D02*
X172351415Y-67436977D01*
X172351415Y-67436977D02*
X172315129Y-67654691D01*
X172315129Y-67654691D02*
X172278843Y-67763548D01*
X172278843Y-67763548D02*
X172206272Y-67872406D01*
X172206272Y-67872406D02*
X172097415Y-67926834D01*
X172097415Y-67926834D02*
X171915986Y-67926834D01*
D10*
X156830358Y-51683735D02*
X156249786Y-51683735D01*
X156540072Y-51683735D02*
X156540072Y-50667735D01*
X156540072Y-50667735D02*
X156443310Y-50812878D01*
X156443310Y-50812878D02*
X156346548Y-50909640D01*
X156346548Y-50909640D02*
X156249786Y-50958021D01*
D14*
X133195858Y-87169266D02*
X133195858Y-87314409D01*
X133195858Y-87314409D02*
X133232144Y-87386980D01*
X133232144Y-87386980D02*
X133268429Y-87423266D01*
X133268429Y-87423266D02*
X133377286Y-87495837D01*
X133377286Y-87495837D02*
X133522429Y-87532123D01*
X133522429Y-87532123D02*
X133812715Y-87532123D01*
X133812715Y-87532123D02*
X133885286Y-87495837D01*
X133885286Y-87495837D02*
X133921572Y-87459552D01*
X133921572Y-87459552D02*
X133957858Y-87386980D01*
X133957858Y-87386980D02*
X133957858Y-87241837D01*
X133957858Y-87241837D02*
X133921572Y-87169266D01*
X133921572Y-87169266D02*
X133885286Y-87132980D01*
X133885286Y-87132980D02*
X133812715Y-87096694D01*
X133812715Y-87096694D02*
X133631286Y-87096694D01*
X133631286Y-87096694D02*
X133558715Y-87132980D01*
X133558715Y-87132980D02*
X133522429Y-87169266D01*
X133522429Y-87169266D02*
X133486144Y-87241837D01*
X133486144Y-87241837D02*
X133486144Y-87386980D01*
X133486144Y-87386980D02*
X133522429Y-87459552D01*
X133522429Y-87459552D02*
X133558715Y-87495837D01*
X133558715Y-87495837D02*
X133631286Y-87532123D01*
X132397572Y-27080123D02*
X132433858Y-27007552D01*
X132433858Y-27007552D02*
X132433858Y-26898694D01*
X132433858Y-26898694D02*
X132397572Y-26789837D01*
X132397572Y-26789837D02*
X132325001Y-26717266D01*
X132325001Y-26717266D02*
X132252429Y-26680980D01*
X132252429Y-26680980D02*
X132107286Y-26644694D01*
X132107286Y-26644694D02*
X131998429Y-26644694D01*
X131998429Y-26644694D02*
X131853286Y-26680980D01*
X131853286Y-26680980D02*
X131780715Y-26717266D01*
X131780715Y-26717266D02*
X131708144Y-26789837D01*
X131708144Y-26789837D02*
X131671858Y-26898694D01*
X131671858Y-26898694D02*
X131671858Y-26971266D01*
X131671858Y-26971266D02*
X131708144Y-27080123D01*
X131708144Y-27080123D02*
X131744429Y-27116409D01*
X131744429Y-27116409D02*
X131998429Y-27116409D01*
X131998429Y-27116409D02*
X131998429Y-26971266D01*
X131671858Y-27442980D02*
X132433858Y-27442980D01*
X132433858Y-27442980D02*
X131671858Y-27878409D01*
X131671858Y-27878409D02*
X132433858Y-27878409D01*
X131671858Y-28241266D02*
X132433858Y-28241266D01*
X132433858Y-28241266D02*
X132433858Y-28422695D01*
X132433858Y-28422695D02*
X132397572Y-28531552D01*
X132397572Y-28531552D02*
X132325001Y-28604123D01*
X132325001Y-28604123D02*
X132252429Y-28640409D01*
X132252429Y-28640409D02*
X132107286Y-28676695D01*
X132107286Y-28676695D02*
X131998429Y-28676695D01*
X131998429Y-28676695D02*
X131853286Y-28640409D01*
X131853286Y-28640409D02*
X131780715Y-28604123D01*
X131780715Y-28604123D02*
X131708144Y-28531552D01*
X131708144Y-28531552D02*
X131671858Y-28422695D01*
X131671858Y-28422695D02*
X131671858Y-28241266D01*
X142593858Y-27043837D02*
X142593858Y-26680980D01*
X142593858Y-26680980D02*
X142231001Y-26644694D01*
X142231001Y-26644694D02*
X142267286Y-26680980D01*
X142267286Y-26680980D02*
X142303572Y-26753552D01*
X142303572Y-26753552D02*
X142303572Y-26934980D01*
X142303572Y-26934980D02*
X142267286Y-27007552D01*
X142267286Y-27007552D02*
X142231001Y-27043837D01*
X142231001Y-27043837D02*
X142158429Y-27080123D01*
X142158429Y-27080123D02*
X141977001Y-27080123D01*
X141977001Y-27080123D02*
X141904429Y-27043837D01*
X141904429Y-27043837D02*
X141868144Y-27007552D01*
X141868144Y-27007552D02*
X141831858Y-26934980D01*
X141831858Y-26934980D02*
X141831858Y-26753552D01*
X141831858Y-26753552D02*
X141868144Y-26680980D01*
X141868144Y-26680980D02*
X141904429Y-26644694D01*
X142593858Y-27297837D02*
X141831858Y-27551837D01*
X141831858Y-27551837D02*
X142593858Y-27805837D01*
X153552144Y-87096694D02*
X153515858Y-87205552D01*
X153515858Y-87205552D02*
X153515858Y-87386980D01*
X153515858Y-87386980D02*
X153552144Y-87459552D01*
X153552144Y-87459552D02*
X153588429Y-87495837D01*
X153588429Y-87495837D02*
X153661001Y-87532123D01*
X153661001Y-87532123D02*
X153733572Y-87532123D01*
X153733572Y-87532123D02*
X153806144Y-87495837D01*
X153806144Y-87495837D02*
X153842429Y-87459552D01*
X153842429Y-87459552D02*
X153878715Y-87386980D01*
X153878715Y-87386980D02*
X153915001Y-87241837D01*
X153915001Y-87241837D02*
X153951286Y-87169266D01*
X153951286Y-87169266D02*
X153987572Y-87132980D01*
X153987572Y-87132980D02*
X154060144Y-87096694D01*
X154060144Y-87096694D02*
X154132715Y-87096694D01*
X154132715Y-87096694D02*
X154205286Y-87132980D01*
X154205286Y-87132980D02*
X154241572Y-87169266D01*
X154241572Y-87169266D02*
X154277858Y-87241837D01*
X154277858Y-87241837D02*
X154277858Y-87423266D01*
X154277858Y-87423266D02*
X154241572Y-87532123D01*
X153588429Y-88294123D02*
X153552144Y-88257837D01*
X153552144Y-88257837D02*
X153515858Y-88148980D01*
X153515858Y-88148980D02*
X153515858Y-88076408D01*
X153515858Y-88076408D02*
X153552144Y-87967551D01*
X153552144Y-87967551D02*
X153624715Y-87894980D01*
X153624715Y-87894980D02*
X153697286Y-87858694D01*
X153697286Y-87858694D02*
X153842429Y-87822408D01*
X153842429Y-87822408D02*
X153951286Y-87822408D01*
X153951286Y-87822408D02*
X154096429Y-87858694D01*
X154096429Y-87858694D02*
X154169001Y-87894980D01*
X154169001Y-87894980D02*
X154241572Y-87967551D01*
X154241572Y-87967551D02*
X154277858Y-88076408D01*
X154277858Y-88076408D02*
X154277858Y-88148980D01*
X154277858Y-88148980D02*
X154241572Y-88257837D01*
X154241572Y-88257837D02*
X154205286Y-88294123D01*
X153515858Y-88983551D02*
X153515858Y-88620694D01*
X153515858Y-88620694D02*
X154277858Y-88620694D01*
X116649572Y-27152694D02*
X116649572Y-27515552D01*
X116431858Y-27080123D02*
X117193858Y-27334123D01*
X117193858Y-27334123D02*
X116431858Y-27588123D01*
X117121286Y-27805837D02*
X117157572Y-27842123D01*
X117157572Y-27842123D02*
X117193858Y-27914695D01*
X117193858Y-27914695D02*
X117193858Y-28096123D01*
X117193858Y-28096123D02*
X117157572Y-28168695D01*
X117157572Y-28168695D02*
X117121286Y-28204980D01*
X117121286Y-28204980D02*
X117048715Y-28241266D01*
X117048715Y-28241266D02*
X116976144Y-28241266D01*
X116976144Y-28241266D02*
X116867286Y-28204980D01*
X116867286Y-28204980D02*
X116431858Y-27769552D01*
X116431858Y-27769552D02*
X116431858Y-28241266D01*
D15*
X162191413Y-65894834D02*
X161755984Y-65894834D01*
X161973699Y-65894834D02*
X161973699Y-64751834D01*
X161973699Y-64751834D02*
X161901127Y-64915120D01*
X161901127Y-64915120D02*
X161828556Y-65023977D01*
X161828556Y-65023977D02*
X161755984Y-65078406D01*
X163098555Y-65459406D02*
X163679127Y-65459406D01*
X164586269Y-64860691D02*
X164622555Y-64806263D01*
X164622555Y-64806263D02*
X164695127Y-64751834D01*
X164695127Y-64751834D02*
X164876555Y-64751834D01*
X164876555Y-64751834D02*
X164949127Y-64806263D01*
X164949127Y-64806263D02*
X164985412Y-64860691D01*
X164985412Y-64860691D02*
X165021698Y-64969548D01*
X165021698Y-64969548D02*
X165021698Y-65078406D01*
X165021698Y-65078406D02*
X164985412Y-65241691D01*
X164985412Y-65241691D02*
X164549984Y-65894834D01*
X164549984Y-65894834D02*
X165021698Y-65894834D01*
X165928840Y-65459406D02*
X166509412Y-65459406D01*
X167380269Y-64751834D02*
X167851983Y-64751834D01*
X167851983Y-64751834D02*
X167597983Y-65187263D01*
X167597983Y-65187263D02*
X167706840Y-65187263D01*
X167706840Y-65187263D02*
X167779412Y-65241691D01*
X167779412Y-65241691D02*
X167815697Y-65296120D01*
X167815697Y-65296120D02*
X167851983Y-65404977D01*
X167851983Y-65404977D02*
X167851983Y-65677120D01*
X167851983Y-65677120D02*
X167815697Y-65785977D01*
X167815697Y-65785977D02*
X167779412Y-65840406D01*
X167779412Y-65840406D02*
X167706840Y-65894834D01*
X167706840Y-65894834D02*
X167489126Y-65894834D01*
X167489126Y-65894834D02*
X167416554Y-65840406D01*
X167416554Y-65840406D02*
X167380269Y-65785977D01*
X168759125Y-65459406D02*
X169339697Y-65459406D01*
X170609697Y-65132834D02*
X170609697Y-65894834D01*
X170428268Y-64697406D02*
X170246839Y-65513834D01*
X170246839Y-65513834D02*
X170718554Y-65513834D01*
D10*
X116851311Y-48094167D02*
X116851311Y-48868263D01*
X116851311Y-50900262D02*
X116851311Y-51674358D01*
X116464264Y-51287310D02*
X117238359Y-51287310D01*
D14*
X119189572Y-27152694D02*
X119189572Y-27515552D01*
X118971858Y-27080123D02*
X119733858Y-27334123D01*
X119733858Y-27334123D02*
X118971858Y-27588123D01*
X118971858Y-28241266D02*
X118971858Y-27805837D01*
X118971858Y-28023552D02*
X119733858Y-28023552D01*
X119733858Y-28023552D02*
X119625001Y-27950980D01*
X119625001Y-27950980D02*
X119552429Y-27878409D01*
X119552429Y-27878409D02*
X119516144Y-27805837D01*
D10*
X172344264Y-59633024D02*
X171328264Y-59971691D01*
X171328264Y-59971691D02*
X172344264Y-60310358D01*
X171376645Y-61084453D02*
X171328264Y-60987691D01*
X171328264Y-60987691D02*
X171328264Y-60794167D01*
X171328264Y-60794167D02*
X171376645Y-60697405D01*
X171376645Y-60697405D02*
X171425025Y-60649024D01*
X171425025Y-60649024D02*
X171521787Y-60600643D01*
X171521787Y-60600643D02*
X171812073Y-60600643D01*
X171812073Y-60600643D02*
X171908835Y-60649024D01*
X171908835Y-60649024D02*
X171957216Y-60697405D01*
X171957216Y-60697405D02*
X172005597Y-60794167D01*
X172005597Y-60794167D02*
X172005597Y-60987691D01*
X172005597Y-60987691D02*
X171957216Y-61084453D01*
X171376645Y-61955310D02*
X171328264Y-61858548D01*
X171328264Y-61858548D02*
X171328264Y-61665024D01*
X171328264Y-61665024D02*
X171376645Y-61568262D01*
X171376645Y-61568262D02*
X171425025Y-61519881D01*
X171425025Y-61519881D02*
X171521787Y-61471500D01*
X171521787Y-61471500D02*
X171812073Y-61471500D01*
X171812073Y-61471500D02*
X171908835Y-61519881D01*
X171908835Y-61519881D02*
X171957216Y-61568262D01*
X171957216Y-61568262D02*
X172005597Y-61665024D01*
X172005597Y-61665024D02*
X172005597Y-61858548D01*
X172005597Y-61858548D02*
X171957216Y-61955310D01*
D14*
X138275858Y-87532123D02*
X138275858Y-87096694D01*
X138275858Y-87314409D02*
X139037858Y-87314409D01*
X139037858Y-87314409D02*
X138929001Y-87241837D01*
X138929001Y-87241837D02*
X138856429Y-87169266D01*
X138856429Y-87169266D02*
X138820144Y-87096694D01*
X138275858Y-88257837D02*
X138275858Y-87822408D01*
X138275858Y-88040123D02*
X139037858Y-88040123D01*
X139037858Y-88040123D02*
X138929001Y-87967551D01*
X138929001Y-87967551D02*
X138856429Y-87894980D01*
X138856429Y-87894980D02*
X138820144Y-87822408D01*
X131091286Y-87241837D02*
X131127572Y-87169266D01*
X131127572Y-87169266D02*
X131163858Y-87132980D01*
X131163858Y-87132980D02*
X131236429Y-87096694D01*
X131236429Y-87096694D02*
X131272715Y-87096694D01*
X131272715Y-87096694D02*
X131345286Y-87132980D01*
X131345286Y-87132980D02*
X131381572Y-87169266D01*
X131381572Y-87169266D02*
X131417858Y-87241837D01*
X131417858Y-87241837D02*
X131417858Y-87386980D01*
X131417858Y-87386980D02*
X131381572Y-87459552D01*
X131381572Y-87459552D02*
X131345286Y-87495837D01*
X131345286Y-87495837D02*
X131272715Y-87532123D01*
X131272715Y-87532123D02*
X131236429Y-87532123D01*
X131236429Y-87532123D02*
X131163858Y-87495837D01*
X131163858Y-87495837D02*
X131127572Y-87459552D01*
X131127572Y-87459552D02*
X131091286Y-87386980D01*
X131091286Y-87386980D02*
X131091286Y-87241837D01*
X131091286Y-87241837D02*
X131055001Y-87169266D01*
X131055001Y-87169266D02*
X131018715Y-87132980D01*
X131018715Y-87132980D02*
X130946144Y-87096694D01*
X130946144Y-87096694D02*
X130801001Y-87096694D01*
X130801001Y-87096694D02*
X130728429Y-87132980D01*
X130728429Y-87132980D02*
X130692144Y-87169266D01*
X130692144Y-87169266D02*
X130655858Y-87241837D01*
X130655858Y-87241837D02*
X130655858Y-87386980D01*
X130655858Y-87386980D02*
X130692144Y-87459552D01*
X130692144Y-87459552D02*
X130728429Y-87495837D01*
X130728429Y-87495837D02*
X130801001Y-87532123D01*
X130801001Y-87532123D02*
X130946144Y-87532123D01*
X130946144Y-87532123D02*
X131018715Y-87495837D01*
X131018715Y-87495837D02*
X131055001Y-87459552D01*
X131055001Y-87459552D02*
X131091286Y-87386980D01*
D10*
X156491691Y-53207735D02*
X156588453Y-53207735D01*
X156588453Y-53207735D02*
X156685215Y-53256116D01*
X156685215Y-53256116D02*
X156733596Y-53304497D01*
X156733596Y-53304497D02*
X156781977Y-53401259D01*
X156781977Y-53401259D02*
X156830358Y-53594783D01*
X156830358Y-53594783D02*
X156830358Y-53836688D01*
X156830358Y-53836688D02*
X156781977Y-54030212D01*
X156781977Y-54030212D02*
X156733596Y-54126974D01*
X156733596Y-54126974D02*
X156685215Y-54175355D01*
X156685215Y-54175355D02*
X156588453Y-54223735D01*
X156588453Y-54223735D02*
X156491691Y-54223735D01*
X156491691Y-54223735D02*
X156394929Y-54175355D01*
X156394929Y-54175355D02*
X156346548Y-54126974D01*
X156346548Y-54126974D02*
X156298167Y-54030212D01*
X156298167Y-54030212D02*
X156249786Y-53836688D01*
X156249786Y-53836688D02*
X156249786Y-53594783D01*
X156249786Y-53594783D02*
X156298167Y-53401259D01*
X156298167Y-53401259D02*
X156346548Y-53304497D01*
X156346548Y-53304497D02*
X156394929Y-53256116D01*
X156394929Y-53256116D02*
X156491691Y-53207735D01*
D14*
X124813858Y-87459552D02*
X124813858Y-87314409D01*
X124813858Y-87314409D02*
X124777572Y-87241837D01*
X124777572Y-87241837D02*
X124741286Y-87205552D01*
X124741286Y-87205552D02*
X124632429Y-87132980D01*
X124632429Y-87132980D02*
X124487286Y-87096694D01*
X124487286Y-87096694D02*
X124197001Y-87096694D01*
X124197001Y-87096694D02*
X124124429Y-87132980D01*
X124124429Y-87132980D02*
X124088144Y-87169266D01*
X124088144Y-87169266D02*
X124051858Y-87241837D01*
X124051858Y-87241837D02*
X124051858Y-87386980D01*
X124051858Y-87386980D02*
X124088144Y-87459552D01*
X124088144Y-87459552D02*
X124124429Y-87495837D01*
X124124429Y-87495837D02*
X124197001Y-87532123D01*
X124197001Y-87532123D02*
X124378429Y-87532123D01*
X124378429Y-87532123D02*
X124451001Y-87495837D01*
X124451001Y-87495837D02*
X124487286Y-87459552D01*
X124487286Y-87459552D02*
X124523572Y-87386980D01*
X124523572Y-87386980D02*
X124523572Y-87241837D01*
X124523572Y-87241837D02*
X124487286Y-87169266D01*
X124487286Y-87169266D02*
X124451001Y-87132980D01*
X124451001Y-87132980D02*
X124378429Y-87096694D01*
X109029572Y-27152694D02*
X109029572Y-27515552D01*
X108811858Y-27080123D02*
X109573858Y-27334123D01*
X109573858Y-27334123D02*
X108811858Y-27588123D01*
X109573858Y-28204980D02*
X109573858Y-27842123D01*
X109573858Y-27842123D02*
X109211001Y-27805837D01*
X109211001Y-27805837D02*
X109247286Y-27842123D01*
X109247286Y-27842123D02*
X109283572Y-27914695D01*
X109283572Y-27914695D02*
X109283572Y-28096123D01*
X109283572Y-28096123D02*
X109247286Y-28168695D01*
X109247286Y-28168695D02*
X109211001Y-28204980D01*
X109211001Y-28204980D02*
X109138429Y-28241266D01*
X109138429Y-28241266D02*
X108957001Y-28241266D01*
X108957001Y-28241266D02*
X108884429Y-28204980D01*
X108884429Y-28204980D02*
X108848144Y-28168695D01*
X108848144Y-28168695D02*
X108811858Y-28096123D01*
X108811858Y-28096123D02*
X108811858Y-27914695D01*
X108811858Y-27914695D02*
X108848144Y-27842123D01*
X108848144Y-27842123D02*
X108884429Y-27805837D01*
X121729572Y-27152694D02*
X121729572Y-27515552D01*
X121511858Y-27080123D02*
X122273858Y-27334123D01*
X122273858Y-27334123D02*
X121511858Y-27588123D01*
X122273858Y-27987266D02*
X122273858Y-28059837D01*
X122273858Y-28059837D02*
X122237572Y-28132409D01*
X122237572Y-28132409D02*
X122201286Y-28168695D01*
X122201286Y-28168695D02*
X122128715Y-28204980D01*
X122128715Y-28204980D02*
X121983572Y-28241266D01*
X121983572Y-28241266D02*
X121802144Y-28241266D01*
X121802144Y-28241266D02*
X121657001Y-28204980D01*
X121657001Y-28204980D02*
X121584429Y-28168695D01*
X121584429Y-28168695D02*
X121548144Y-28132409D01*
X121548144Y-28132409D02*
X121511858Y-28059837D01*
X121511858Y-28059837D02*
X121511858Y-27987266D01*
X121511858Y-27987266D02*
X121548144Y-27914695D01*
X121548144Y-27914695D02*
X121584429Y-27878409D01*
X121584429Y-27878409D02*
X121657001Y-27842123D01*
X121657001Y-27842123D02*
X121802144Y-27805837D01*
X121802144Y-27805837D02*
X121983572Y-27805837D01*
X121983572Y-27805837D02*
X122128715Y-27842123D01*
X122128715Y-27842123D02*
X122201286Y-27878409D01*
X122201286Y-27878409D02*
X122237572Y-27914695D01*
X122237572Y-27914695D02*
X122273858Y-27987266D01*
X134973858Y-27043837D02*
X134973858Y-26680980D01*
X134973858Y-26680980D02*
X134611001Y-26644694D01*
X134611001Y-26644694D02*
X134647286Y-26680980D01*
X134647286Y-26680980D02*
X134683572Y-26753552D01*
X134683572Y-26753552D02*
X134683572Y-26934980D01*
X134683572Y-26934980D02*
X134647286Y-27007552D01*
X134647286Y-27007552D02*
X134611001Y-27043837D01*
X134611001Y-27043837D02*
X134538429Y-27080123D01*
X134538429Y-27080123D02*
X134357001Y-27080123D01*
X134357001Y-27080123D02*
X134284429Y-27043837D01*
X134284429Y-27043837D02*
X134248144Y-27007552D01*
X134248144Y-27007552D02*
X134211858Y-26934980D01*
X134211858Y-26934980D02*
X134211858Y-26753552D01*
X134211858Y-26753552D02*
X134248144Y-26680980D01*
X134248144Y-26680980D02*
X134284429Y-26644694D01*
X134973858Y-27297837D02*
X134211858Y-27551837D01*
X134211858Y-27551837D02*
X134973858Y-27805837D01*
X130425056Y-44862352D02*
X130425056Y-45442924D01*
X130425056Y-45152638D02*
X129409056Y-45152638D01*
X129409056Y-45152638D02*
X129554199Y-45249400D01*
X129554199Y-45249400D02*
X129650961Y-45346162D01*
X129650961Y-45346162D02*
X129699342Y-45442924D01*
X129505818Y-44475305D02*
X129457437Y-44426924D01*
X129457437Y-44426924D02*
X129409056Y-44330162D01*
X129409056Y-44330162D02*
X129409056Y-44088257D01*
X129409056Y-44088257D02*
X129457437Y-43991495D01*
X129457437Y-43991495D02*
X129505818Y-43943114D01*
X129505818Y-43943114D02*
X129602580Y-43894733D01*
X129602580Y-43894733D02*
X129699342Y-43894733D01*
X129699342Y-43894733D02*
X129844485Y-43943114D01*
X129844485Y-43943114D02*
X130425056Y-44523686D01*
X130425056Y-44523686D02*
X130425056Y-43894733D01*
X129409056Y-43604448D02*
X130425056Y-43265781D01*
X130425056Y-43265781D02*
X129409056Y-42927114D01*
X129409056Y-41524067D02*
X130134771Y-41524067D01*
X130134771Y-41524067D02*
X130279914Y-41572448D01*
X130279914Y-41572448D02*
X130376676Y-41669210D01*
X130376676Y-41669210D02*
X130425056Y-41814353D01*
X130425056Y-41814353D02*
X130425056Y-41911115D01*
X130134771Y-41088639D02*
X130134771Y-40604829D01*
X130425056Y-41185401D02*
X129409056Y-40846734D01*
X129409056Y-40846734D02*
X130425056Y-40508067D01*
X130328295Y-39588829D02*
X130376676Y-39637210D01*
X130376676Y-39637210D02*
X130425056Y-39782353D01*
X130425056Y-39782353D02*
X130425056Y-39879115D01*
X130425056Y-39879115D02*
X130376676Y-40024258D01*
X130376676Y-40024258D02*
X130279914Y-40121020D01*
X130279914Y-40121020D02*
X130183152Y-40169401D01*
X130183152Y-40169401D02*
X129989628Y-40217782D01*
X129989628Y-40217782D02*
X129844485Y-40217782D01*
X129844485Y-40217782D02*
X129650961Y-40169401D01*
X129650961Y-40169401D02*
X129554199Y-40121020D01*
X129554199Y-40121020D02*
X129457437Y-40024258D01*
X129457437Y-40024258D02*
X129409056Y-39879115D01*
X129409056Y-39879115D02*
X129409056Y-39782353D01*
X129409056Y-39782353D02*
X129457437Y-39637210D01*
X129457437Y-39637210D02*
X129505818Y-39588829D01*
X130425056Y-39153401D02*
X129409056Y-39153401D01*
X130425056Y-38572829D02*
X129844485Y-39008258D01*
X129409056Y-38572829D02*
X129989628Y-39153401D01*
X129857572Y-27080123D02*
X129893858Y-27007552D01*
X129893858Y-27007552D02*
X129893858Y-26898694D01*
X129893858Y-26898694D02*
X129857572Y-26789837D01*
X129857572Y-26789837D02*
X129785001Y-26717266D01*
X129785001Y-26717266D02*
X129712429Y-26680980D01*
X129712429Y-26680980D02*
X129567286Y-26644694D01*
X129567286Y-26644694D02*
X129458429Y-26644694D01*
X129458429Y-26644694D02*
X129313286Y-26680980D01*
X129313286Y-26680980D02*
X129240715Y-26717266D01*
X129240715Y-26717266D02*
X129168144Y-26789837D01*
X129168144Y-26789837D02*
X129131858Y-26898694D01*
X129131858Y-26898694D02*
X129131858Y-26971266D01*
X129131858Y-26971266D02*
X129168144Y-27080123D01*
X129168144Y-27080123D02*
X129204429Y-27116409D01*
X129204429Y-27116409D02*
X129458429Y-27116409D01*
X129458429Y-27116409D02*
X129458429Y-26971266D01*
X129131858Y-27442980D02*
X129893858Y-27442980D01*
X129893858Y-27442980D02*
X129131858Y-27878409D01*
X129131858Y-27878409D02*
X129893858Y-27878409D01*
X129131858Y-28241266D02*
X129893858Y-28241266D01*
X129893858Y-28241266D02*
X129893858Y-28422695D01*
X129893858Y-28422695D02*
X129857572Y-28531552D01*
X129857572Y-28531552D02*
X129785001Y-28604123D01*
X129785001Y-28604123D02*
X129712429Y-28640409D01*
X129712429Y-28640409D02*
X129567286Y-28676695D01*
X129567286Y-28676695D02*
X129458429Y-28676695D01*
X129458429Y-28676695D02*
X129313286Y-28640409D01*
X129313286Y-28640409D02*
X129240715Y-28604123D01*
X129240715Y-28604123D02*
X129168144Y-28531552D01*
X129168144Y-28531552D02*
X129131858Y-28422695D01*
X129131858Y-28422695D02*
X129131858Y-28241266D01*
X114109572Y-27152694D02*
X114109572Y-27515552D01*
X113891858Y-27080123D02*
X114653858Y-27334123D01*
X114653858Y-27334123D02*
X113891858Y-27588123D01*
X114653858Y-27769552D02*
X114653858Y-28241266D01*
X114653858Y-28241266D02*
X114363572Y-27987266D01*
X114363572Y-27987266D02*
X114363572Y-28096123D01*
X114363572Y-28096123D02*
X114327286Y-28168695D01*
X114327286Y-28168695D02*
X114291001Y-28204980D01*
X114291001Y-28204980D02*
X114218429Y-28241266D01*
X114218429Y-28241266D02*
X114037001Y-28241266D01*
X114037001Y-28241266D02*
X113964429Y-28204980D01*
X113964429Y-28204980D02*
X113928144Y-28168695D01*
X113928144Y-28168695D02*
X113891858Y-28096123D01*
X113891858Y-28096123D02*
X113891858Y-27878409D01*
X113891858Y-27878409D02*
X113928144Y-27805837D01*
X113928144Y-27805837D02*
X113964429Y-27769552D01*
X127353858Y-87060409D02*
X127353858Y-87568409D01*
X127353858Y-87568409D02*
X126591858Y-87241837D01*
X112113858Y-87024123D02*
X112113858Y-87459552D01*
X111351858Y-87241837D02*
X112113858Y-87241837D01*
X112113858Y-87640980D02*
X111351858Y-88148980D01*
X112113858Y-88148980D02*
X111351858Y-87640980D01*
X111642144Y-88439265D02*
X111642144Y-89019837D01*
X111351858Y-89781837D02*
X111351858Y-89346408D01*
X111351858Y-89564123D02*
X112113858Y-89564123D01*
X112113858Y-89564123D02*
X112005001Y-89491551D01*
X112005001Y-89491551D02*
X111932429Y-89418980D01*
X111932429Y-89418980D02*
X111896144Y-89346408D01*
X114581286Y-87096694D02*
X114617572Y-87132980D01*
X114617572Y-87132980D02*
X114653858Y-87205552D01*
X114653858Y-87205552D02*
X114653858Y-87386980D01*
X114653858Y-87386980D02*
X114617572Y-87459552D01*
X114617572Y-87459552D02*
X114581286Y-87495837D01*
X114581286Y-87495837D02*
X114508715Y-87532123D01*
X114508715Y-87532123D02*
X114436144Y-87532123D01*
X114436144Y-87532123D02*
X114327286Y-87495837D01*
X114327286Y-87495837D02*
X113891858Y-87060409D01*
X113891858Y-87060409D02*
X113891858Y-87532123D01*
X119479858Y-87459552D02*
X118971858Y-87459552D01*
X119770144Y-87278123D02*
X119225858Y-87096694D01*
X119225858Y-87096694D02*
X119225858Y-87568409D01*
X127885056Y-44862352D02*
X127885056Y-45442924D01*
X127885056Y-45152638D02*
X126869056Y-45152638D01*
X126869056Y-45152638D02*
X127014199Y-45249400D01*
X127014199Y-45249400D02*
X127110961Y-45346162D01*
X127110961Y-45346162D02*
X127159342Y-45442924D01*
X126965818Y-44475305D02*
X126917437Y-44426924D01*
X126917437Y-44426924D02*
X126869056Y-44330162D01*
X126869056Y-44330162D02*
X126869056Y-44088257D01*
X126869056Y-44088257D02*
X126917437Y-43991495D01*
X126917437Y-43991495D02*
X126965818Y-43943114D01*
X126965818Y-43943114D02*
X127062580Y-43894733D01*
X127062580Y-43894733D02*
X127159342Y-43894733D01*
X127159342Y-43894733D02*
X127304485Y-43943114D01*
X127304485Y-43943114D02*
X127885056Y-44523686D01*
X127885056Y-44523686D02*
X127885056Y-43894733D01*
X126869056Y-43604448D02*
X127885056Y-43265781D01*
X127885056Y-43265781D02*
X126869056Y-42927114D01*
X127352866Y-41814353D02*
X127352866Y-41475686D01*
X127885056Y-41330543D02*
X127885056Y-41814353D01*
X127885056Y-41814353D02*
X126869056Y-41814353D01*
X126869056Y-41814353D02*
X126869056Y-41330543D01*
X126869056Y-40991877D02*
X127885056Y-40314543D01*
X126869056Y-40314543D02*
X127885056Y-40991877D01*
X126869056Y-40072639D02*
X126869056Y-39492067D01*
X127885056Y-39782353D02*
X126869056Y-39782353D01*
X108811858Y-87568409D02*
X109174715Y-87314409D01*
X108811858Y-87132980D02*
X109573858Y-87132980D01*
X109573858Y-87132980D02*
X109573858Y-87423266D01*
X109573858Y-87423266D02*
X109537572Y-87495837D01*
X109537572Y-87495837D02*
X109501286Y-87532123D01*
X109501286Y-87532123D02*
X109428715Y-87568409D01*
X109428715Y-87568409D02*
X109319858Y-87568409D01*
X109319858Y-87568409D02*
X109247286Y-87532123D01*
X109247286Y-87532123D02*
X109211001Y-87495837D01*
X109211001Y-87495837D02*
X109174715Y-87423266D01*
X109174715Y-87423266D02*
X109174715Y-87132980D01*
X109573858Y-87822409D02*
X108811858Y-88330409D01*
X109573858Y-88330409D02*
X108811858Y-87822409D01*
X109102144Y-88620694D02*
X109102144Y-89201266D01*
X109573858Y-89709266D02*
X109573858Y-89781837D01*
X109573858Y-89781837D02*
X109537572Y-89854409D01*
X109537572Y-89854409D02*
X109501286Y-89890695D01*
X109501286Y-89890695D02*
X109428715Y-89926980D01*
X109428715Y-89926980D02*
X109283572Y-89963266D01*
X109283572Y-89963266D02*
X109102144Y-89963266D01*
X109102144Y-89963266D02*
X108957001Y-89926980D01*
X108957001Y-89926980D02*
X108884429Y-89890695D01*
X108884429Y-89890695D02*
X108848144Y-89854409D01*
X108848144Y-89854409D02*
X108811858Y-89781837D01*
X108811858Y-89781837D02*
X108811858Y-89709266D01*
X108811858Y-89709266D02*
X108848144Y-89636695D01*
X108848144Y-89636695D02*
X108884429Y-89600409D01*
X108884429Y-89600409D02*
X108957001Y-89564123D01*
X108957001Y-89564123D02*
X109102144Y-89527837D01*
X109102144Y-89527837D02*
X109283572Y-89527837D01*
X109283572Y-89527837D02*
X109428715Y-89564123D01*
X109428715Y-89564123D02*
X109501286Y-89600409D01*
X109501286Y-89600409D02*
X109537572Y-89636695D01*
X109537572Y-89636695D02*
X109573858Y-89709266D01*
X122273858Y-87495837D02*
X122273858Y-87132980D01*
X122273858Y-87132980D02*
X121911001Y-87096694D01*
X121911001Y-87096694D02*
X121947286Y-87132980D01*
X121947286Y-87132980D02*
X121983572Y-87205552D01*
X121983572Y-87205552D02*
X121983572Y-87386980D01*
X121983572Y-87386980D02*
X121947286Y-87459552D01*
X121947286Y-87459552D02*
X121911001Y-87495837D01*
X121911001Y-87495837D02*
X121838429Y-87532123D01*
X121838429Y-87532123D02*
X121657001Y-87532123D01*
X121657001Y-87532123D02*
X121584429Y-87495837D01*
X121584429Y-87495837D02*
X121548144Y-87459552D01*
X121548144Y-87459552D02*
X121511858Y-87386980D01*
X121511858Y-87386980D02*
X121511858Y-87205552D01*
X121511858Y-87205552D02*
X121548144Y-87132980D01*
X121548144Y-87132980D02*
X121584429Y-87096694D01*
D10*
X167498358Y-62351735D02*
X166917786Y-62351735D01*
X167208072Y-62351735D02*
X167208072Y-61335735D01*
X167208072Y-61335735D02*
X167111310Y-61480878D01*
X167111310Y-61480878D02*
X167014548Y-61577640D01*
X167014548Y-61577640D02*
X166917786Y-61626021D01*
X167885405Y-61432497D02*
X167933786Y-61384116D01*
X167933786Y-61384116D02*
X168030548Y-61335735D01*
X168030548Y-61335735D02*
X168272453Y-61335735D01*
X168272453Y-61335735D02*
X168369215Y-61384116D01*
X168369215Y-61384116D02*
X168417596Y-61432497D01*
X168417596Y-61432497D02*
X168465977Y-61529259D01*
X168465977Y-61529259D02*
X168465977Y-61626021D01*
X168465977Y-61626021D02*
X168417596Y-61771164D01*
X168417596Y-61771164D02*
X167837024Y-62351735D01*
X167837024Y-62351735D02*
X168465977Y-62351735D01*
X169530357Y-61335735D02*
X169869024Y-62351735D01*
X169869024Y-62351735D02*
X170207691Y-61335735D01*
D14*
X119173266Y-39889353D02*
X118689456Y-39889353D01*
X118689456Y-39889353D02*
X118689456Y-38873353D01*
X119898980Y-39840973D02*
X119802218Y-39889353D01*
X119802218Y-39889353D02*
X119608694Y-39889353D01*
X119608694Y-39889353D02*
X119511932Y-39840973D01*
X119511932Y-39840973D02*
X119463551Y-39744211D01*
X119463551Y-39744211D02*
X119463551Y-39357163D01*
X119463551Y-39357163D02*
X119511932Y-39260401D01*
X119511932Y-39260401D02*
X119608694Y-39212020D01*
X119608694Y-39212020D02*
X119802218Y-39212020D01*
X119802218Y-39212020D02*
X119898980Y-39260401D01*
X119898980Y-39260401D02*
X119947361Y-39357163D01*
X119947361Y-39357163D02*
X119947361Y-39453925D01*
X119947361Y-39453925D02*
X119463551Y-39550687D01*
X120818218Y-39889353D02*
X120818218Y-38873353D01*
X120818218Y-39840973D02*
X120721456Y-39889353D01*
X120721456Y-39889353D02*
X120527932Y-39889353D01*
X120527932Y-39889353D02*
X120431170Y-39840973D01*
X120431170Y-39840973D02*
X120382789Y-39792592D01*
X120382789Y-39792592D02*
X120334408Y-39695830D01*
X120334408Y-39695830D02*
X120334408Y-39405544D01*
X120334408Y-39405544D02*
X120382789Y-39308782D01*
X120382789Y-39308782D02*
X120431170Y-39260401D01*
X120431170Y-39260401D02*
X120527932Y-39212020D01*
X120527932Y-39212020D02*
X120721456Y-39212020D01*
X120721456Y-39212020D02*
X120818218Y-39260401D01*
X119221647Y-41525056D02*
X118641075Y-41525056D01*
X118931361Y-41525056D02*
X118931361Y-40509056D01*
X118931361Y-40509056D02*
X118834599Y-40654199D01*
X118834599Y-40654199D02*
X118737837Y-40750961D01*
X118737837Y-40750961D02*
X118641075Y-40799342D01*
X119608694Y-40605818D02*
X119657075Y-40557437D01*
X119657075Y-40557437D02*
X119753837Y-40509056D01*
X119753837Y-40509056D02*
X119995742Y-40509056D01*
X119995742Y-40509056D02*
X120092504Y-40557437D01*
X120092504Y-40557437D02*
X120140885Y-40605818D01*
X120140885Y-40605818D02*
X120189266Y-40702580D01*
X120189266Y-40702580D02*
X120189266Y-40799342D01*
X120189266Y-40799342D02*
X120140885Y-40944485D01*
X120140885Y-40944485D02*
X119560313Y-41525056D01*
X119560313Y-41525056D02*
X120189266Y-41525056D01*
X120479551Y-40509056D02*
X120818218Y-41525056D01*
X120818218Y-41525056D02*
X121156885Y-40509056D01*
X117193858Y-87060409D02*
X117193858Y-87532123D01*
X117193858Y-87532123D02*
X116903572Y-87278123D01*
X116903572Y-87278123D02*
X116903572Y-87386980D01*
X116903572Y-87386980D02*
X116867286Y-87459552D01*
X116867286Y-87459552D02*
X116831001Y-87495837D01*
X116831001Y-87495837D02*
X116758429Y-87532123D01*
X116758429Y-87532123D02*
X116577001Y-87532123D01*
X116577001Y-87532123D02*
X116504429Y-87495837D01*
X116504429Y-87495837D02*
X116468144Y-87459552D01*
X116468144Y-87459552D02*
X116431858Y-87386980D01*
X116431858Y-87386980D02*
X116431858Y-87169266D01*
X116431858Y-87169266D02*
X116468144Y-87096694D01*
X116468144Y-87096694D02*
X116504429Y-87060409D01*
D15*
X161683413Y-68815834D02*
X161937413Y-69958834D01*
X161937413Y-69958834D02*
X162191413Y-68815834D01*
X162771985Y-69904406D02*
X162699413Y-69958834D01*
X162699413Y-69958834D02*
X162554270Y-69958834D01*
X162554270Y-69958834D02*
X162481699Y-69904406D01*
X162481699Y-69904406D02*
X162445413Y-69849977D01*
X162445413Y-69849977D02*
X162409127Y-69741120D01*
X162409127Y-69741120D02*
X162409127Y-69414548D01*
X162409127Y-69414548D02*
X162445413Y-69305691D01*
X162445413Y-69305691D02*
X162481699Y-69251263D01*
X162481699Y-69251263D02*
X162554270Y-69196834D01*
X162554270Y-69196834D02*
X162699413Y-69196834D01*
X162699413Y-69196834D02*
X162771985Y-69251263D01*
X163425128Y-69904406D02*
X163352556Y-69958834D01*
X163352556Y-69958834D02*
X163207413Y-69958834D01*
X163207413Y-69958834D02*
X163134842Y-69904406D01*
X163134842Y-69904406D02*
X163098556Y-69849977D01*
X163098556Y-69849977D02*
X163062270Y-69741120D01*
X163062270Y-69741120D02*
X163062270Y-69414548D01*
X163062270Y-69414548D02*
X163098556Y-69305691D01*
X163098556Y-69305691D02*
X163134842Y-69251263D01*
X163134842Y-69251263D02*
X163207413Y-69196834D01*
X163207413Y-69196834D02*
X163352556Y-69196834D01*
X163352556Y-69196834D02*
X163425128Y-69251263D01*
X163751699Y-69523406D02*
X164332271Y-69523406D01*
X164695128Y-69958834D02*
X164695128Y-69196834D01*
X164695128Y-68815834D02*
X164658842Y-68870263D01*
X164658842Y-68870263D02*
X164695128Y-68924691D01*
X164695128Y-68924691D02*
X164731414Y-68870263D01*
X164731414Y-68870263D02*
X164695128Y-68815834D01*
X164695128Y-68815834D02*
X164695128Y-68924691D01*
X165057985Y-69196834D02*
X165057985Y-69958834D01*
X165057985Y-69305691D02*
X165094271Y-69251263D01*
X165094271Y-69251263D02*
X165166842Y-69196834D01*
X165166842Y-69196834D02*
X165275699Y-69196834D01*
X165275699Y-69196834D02*
X165348271Y-69251263D01*
X165348271Y-69251263D02*
X165384557Y-69360120D01*
X165384557Y-69360120D02*
X165384557Y-69958834D01*
X165747414Y-69523406D02*
X166327986Y-69523406D01*
X166799700Y-69958834D02*
X166727129Y-69904406D01*
X166727129Y-69904406D02*
X166690843Y-69849977D01*
X166690843Y-69849977D02*
X166654557Y-69741120D01*
X166654557Y-69741120D02*
X166654557Y-69414548D01*
X166654557Y-69414548D02*
X166690843Y-69305691D01*
X166690843Y-69305691D02*
X166727129Y-69251263D01*
X166727129Y-69251263D02*
X166799700Y-69196834D01*
X166799700Y-69196834D02*
X166908557Y-69196834D01*
X166908557Y-69196834D02*
X166981129Y-69251263D01*
X166981129Y-69251263D02*
X167017415Y-69305691D01*
X167017415Y-69305691D02*
X167053700Y-69414548D01*
X167053700Y-69414548D02*
X167053700Y-69741120D01*
X167053700Y-69741120D02*
X167017415Y-69849977D01*
X167017415Y-69849977D02*
X166981129Y-69904406D01*
X166981129Y-69904406D02*
X166908557Y-69958834D01*
X166908557Y-69958834D02*
X166799700Y-69958834D01*
X167706844Y-69196834D02*
X167706844Y-69958834D01*
X167380272Y-69196834D02*
X167380272Y-69795548D01*
X167380272Y-69795548D02*
X167416558Y-69904406D01*
X167416558Y-69904406D02*
X167489129Y-69958834D01*
X167489129Y-69958834D02*
X167597986Y-69958834D01*
X167597986Y-69958834D02*
X167670558Y-69904406D01*
X167670558Y-69904406D02*
X167706844Y-69849977D01*
X167960844Y-69196834D02*
X168251130Y-69196834D01*
X168069701Y-68815834D02*
X168069701Y-69795548D01*
X168069701Y-69795548D02*
X168105987Y-69904406D01*
X168105987Y-69904406D02*
X168178558Y-69958834D01*
X168178558Y-69958834D02*
X168251130Y-69958834D01*
X168505130Y-69523406D02*
X169085702Y-69523406D01*
X169847702Y-68870263D02*
X169775131Y-68815834D01*
X169775131Y-68815834D02*
X169666273Y-68815834D01*
X169666273Y-68815834D02*
X169557416Y-68870263D01*
X169557416Y-68870263D02*
X169484845Y-68979120D01*
X169484845Y-68979120D02*
X169448559Y-69087977D01*
X169448559Y-69087977D02*
X169412273Y-69305691D01*
X169412273Y-69305691D02*
X169412273Y-69468977D01*
X169412273Y-69468977D02*
X169448559Y-69686691D01*
X169448559Y-69686691D02*
X169484845Y-69795548D01*
X169484845Y-69795548D02*
X169557416Y-69904406D01*
X169557416Y-69904406D02*
X169666273Y-69958834D01*
X169666273Y-69958834D02*
X169738845Y-69958834D01*
X169738845Y-69958834D02*
X169847702Y-69904406D01*
X169847702Y-69904406D02*
X169883988Y-69849977D01*
X169883988Y-69849977D02*
X169883988Y-69468977D01*
X169883988Y-69468977D02*
X169738845Y-69468977D01*
X170210559Y-69958834D02*
X170210559Y-68815834D01*
X170210559Y-68815834D02*
X170645988Y-69958834D01*
X170645988Y-69958834D02*
X170645988Y-68815834D01*
X171008845Y-69958834D02*
X171008845Y-68815834D01*
X171008845Y-68815834D02*
X171190274Y-68815834D01*
X171190274Y-68815834D02*
X171299131Y-68870263D01*
X171299131Y-68870263D02*
X171371702Y-68979120D01*
X171371702Y-68979120D02*
X171407988Y-69087977D01*
X171407988Y-69087977D02*
X171444274Y-69305691D01*
X171444274Y-69305691D02*
X171444274Y-69468977D01*
X171444274Y-69468977D02*
X171407988Y-69686691D01*
X171407988Y-69686691D02*
X171371702Y-69795548D01*
X171371702Y-69795548D02*
X171299131Y-69904406D01*
X171299131Y-69904406D02*
X171190274Y-69958834D01*
X171190274Y-69958834D02*
X171008845Y-69958834D01*
D14*
X135735858Y-87532123D02*
X135735858Y-87096694D01*
X135735858Y-87314409D02*
X136497858Y-87314409D01*
X136497858Y-87314409D02*
X136389001Y-87241837D01*
X136389001Y-87241837D02*
X136316429Y-87169266D01*
X136316429Y-87169266D02*
X136280144Y-87096694D01*
X136497858Y-88003837D02*
X136497858Y-88076408D01*
X136497858Y-88076408D02*
X136461572Y-88148980D01*
X136461572Y-88148980D02*
X136425286Y-88185266D01*
X136425286Y-88185266D02*
X136352715Y-88221551D01*
X136352715Y-88221551D02*
X136207572Y-88257837D01*
X136207572Y-88257837D02*
X136026144Y-88257837D01*
X136026144Y-88257837D02*
X135881001Y-88221551D01*
X135881001Y-88221551D02*
X135808429Y-88185266D01*
X135808429Y-88185266D02*
X135772144Y-88148980D01*
X135772144Y-88148980D02*
X135735858Y-88076408D01*
X135735858Y-88076408D02*
X135735858Y-88003837D01*
X135735858Y-88003837D02*
X135772144Y-87931266D01*
X135772144Y-87931266D02*
X135808429Y-87894980D01*
X135808429Y-87894980D02*
X135881001Y-87858694D01*
X135881001Y-87858694D02*
X136026144Y-87822408D01*
X136026144Y-87822408D02*
X136207572Y-87822408D01*
X136207572Y-87822408D02*
X136352715Y-87858694D01*
X136352715Y-87858694D02*
X136425286Y-87894980D01*
X136425286Y-87894980D02*
X136461572Y-87931266D01*
X136461572Y-87931266D02*
X136497858Y-88003837D01*
X148653572Y-87096694D02*
X148653572Y-87459552D01*
X148435858Y-87024123D02*
X149197858Y-87278123D01*
X149197858Y-87278123D02*
X148435858Y-87532123D01*
X148435858Y-88221552D02*
X148798715Y-87967552D01*
X148435858Y-87786123D02*
X149197858Y-87786123D01*
X149197858Y-87786123D02*
X149197858Y-88076409D01*
X149197858Y-88076409D02*
X149161572Y-88148980D01*
X149161572Y-88148980D02*
X149125286Y-88185266D01*
X149125286Y-88185266D02*
X149052715Y-88221552D01*
X149052715Y-88221552D02*
X148943858Y-88221552D01*
X148943858Y-88221552D02*
X148871286Y-88185266D01*
X148871286Y-88185266D02*
X148835001Y-88148980D01*
X148835001Y-88148980D02*
X148798715Y-88076409D01*
X148798715Y-88076409D02*
X148798715Y-87786123D01*
X148835001Y-88548123D02*
X148835001Y-88802123D01*
X148435858Y-88910980D02*
X148435858Y-88548123D01*
X148435858Y-88548123D02*
X149197858Y-88548123D01*
X149197858Y-88548123D02*
X149197858Y-88910980D01*
X148835001Y-89491552D02*
X148835001Y-89237552D01*
X148435858Y-89237552D02*
X149197858Y-89237552D01*
X149197858Y-89237552D02*
X149197858Y-89600409D01*
X139291858Y-27116409D02*
X139654715Y-26862409D01*
X139291858Y-26680980D02*
X140053858Y-26680980D01*
X140053858Y-26680980D02*
X140053858Y-26971266D01*
X140053858Y-26971266D02*
X140017572Y-27043837D01*
X140017572Y-27043837D02*
X139981286Y-27080123D01*
X139981286Y-27080123D02*
X139908715Y-27116409D01*
X139908715Y-27116409D02*
X139799858Y-27116409D01*
X139799858Y-27116409D02*
X139727286Y-27080123D01*
X139727286Y-27080123D02*
X139691001Y-27043837D01*
X139691001Y-27043837D02*
X139654715Y-26971266D01*
X139654715Y-26971266D02*
X139654715Y-26680980D01*
X139691001Y-27442980D02*
X139691001Y-27696980D01*
X139291858Y-27805837D02*
X139291858Y-27442980D01*
X139291858Y-27442980D02*
X140053858Y-27442980D01*
X140053858Y-27442980D02*
X140053858Y-27805837D01*
X139328144Y-28096123D02*
X139291858Y-28204981D01*
X139291858Y-28204981D02*
X139291858Y-28386409D01*
X139291858Y-28386409D02*
X139328144Y-28458981D01*
X139328144Y-28458981D02*
X139364429Y-28495266D01*
X139364429Y-28495266D02*
X139437001Y-28531552D01*
X139437001Y-28531552D02*
X139509572Y-28531552D01*
X139509572Y-28531552D02*
X139582144Y-28495266D01*
X139582144Y-28495266D02*
X139618429Y-28458981D01*
X139618429Y-28458981D02*
X139654715Y-28386409D01*
X139654715Y-28386409D02*
X139691001Y-28241266D01*
X139691001Y-28241266D02*
X139727286Y-28168695D01*
X139727286Y-28168695D02*
X139763572Y-28132409D01*
X139763572Y-28132409D02*
X139836144Y-28096123D01*
X139836144Y-28096123D02*
X139908715Y-28096123D01*
X139908715Y-28096123D02*
X139981286Y-28132409D01*
X139981286Y-28132409D02*
X140017572Y-28168695D01*
X140017572Y-28168695D02*
X140053858Y-28241266D01*
X140053858Y-28241266D02*
X140053858Y-28422695D01*
X140053858Y-28422695D02*
X140017572Y-28531552D01*
X140815858Y-87532123D02*
X140815858Y-87096694D01*
X140815858Y-87314409D02*
X141577858Y-87314409D01*
X141577858Y-87314409D02*
X141469001Y-87241837D01*
X141469001Y-87241837D02*
X141396429Y-87169266D01*
X141396429Y-87169266D02*
X141360144Y-87096694D01*
X141505286Y-87822408D02*
X141541572Y-87858694D01*
X141541572Y-87858694D02*
X141577858Y-87931266D01*
X141577858Y-87931266D02*
X141577858Y-88112694D01*
X141577858Y-88112694D02*
X141541572Y-88185266D01*
X141541572Y-88185266D02*
X141505286Y-88221551D01*
X141505286Y-88221551D02*
X141432715Y-88257837D01*
X141432715Y-88257837D02*
X141360144Y-88257837D01*
X141360144Y-88257837D02*
X141251286Y-88221551D01*
X141251286Y-88221551D02*
X140815858Y-87786123D01*
X140815858Y-87786123D02*
X140815858Y-88257837D01*
X127353858Y-26572123D02*
X126591858Y-26826123D01*
X126591858Y-26826123D02*
X127353858Y-27080123D01*
X126591858Y-27334123D02*
X127353858Y-27334123D01*
X126591858Y-27696980D02*
X127353858Y-27696980D01*
X127353858Y-27696980D02*
X126591858Y-28132409D01*
X126591858Y-28132409D02*
X127353858Y-28132409D01*
X151012144Y-87096694D02*
X150975858Y-87205552D01*
X150975858Y-87205552D02*
X150975858Y-87386980D01*
X150975858Y-87386980D02*
X151012144Y-87459552D01*
X151012144Y-87459552D02*
X151048429Y-87495837D01*
X151048429Y-87495837D02*
X151121001Y-87532123D01*
X151121001Y-87532123D02*
X151193572Y-87532123D01*
X151193572Y-87532123D02*
X151266144Y-87495837D01*
X151266144Y-87495837D02*
X151302429Y-87459552D01*
X151302429Y-87459552D02*
X151338715Y-87386980D01*
X151338715Y-87386980D02*
X151375001Y-87241837D01*
X151375001Y-87241837D02*
X151411286Y-87169266D01*
X151411286Y-87169266D02*
X151447572Y-87132980D01*
X151447572Y-87132980D02*
X151520144Y-87096694D01*
X151520144Y-87096694D02*
X151592715Y-87096694D01*
X151592715Y-87096694D02*
X151665286Y-87132980D01*
X151665286Y-87132980D02*
X151701572Y-87169266D01*
X151701572Y-87169266D02*
X151737858Y-87241837D01*
X151737858Y-87241837D02*
X151737858Y-87423266D01*
X151737858Y-87423266D02*
X151701572Y-87532123D01*
X150975858Y-87858694D02*
X151737858Y-87858694D01*
X151737858Y-87858694D02*
X151737858Y-88040123D01*
X151737858Y-88040123D02*
X151701572Y-88148980D01*
X151701572Y-88148980D02*
X151629001Y-88221551D01*
X151629001Y-88221551D02*
X151556429Y-88257837D01*
X151556429Y-88257837D02*
X151411286Y-88294123D01*
X151411286Y-88294123D02*
X151302429Y-88294123D01*
X151302429Y-88294123D02*
X151157286Y-88257837D01*
X151157286Y-88257837D02*
X151084715Y-88221551D01*
X151084715Y-88221551D02*
X151012144Y-88148980D01*
X151012144Y-88148980D02*
X150975858Y-88040123D01*
X150975858Y-88040123D02*
X150975858Y-87858694D01*
X151193572Y-88584408D02*
X151193572Y-88947266D01*
X150975858Y-88511837D02*
X151737858Y-88765837D01*
X151737858Y-88765837D02*
X150975858Y-89019837D01*
X137513858Y-26608409D02*
X137513858Y-27080123D01*
X137513858Y-27080123D02*
X137223572Y-26826123D01*
X137223572Y-26826123D02*
X137223572Y-26934980D01*
X137223572Y-26934980D02*
X137187286Y-27007552D01*
X137187286Y-27007552D02*
X137151001Y-27043837D01*
X137151001Y-27043837D02*
X137078429Y-27080123D01*
X137078429Y-27080123D02*
X136897001Y-27080123D01*
X136897001Y-27080123D02*
X136824429Y-27043837D01*
X136824429Y-27043837D02*
X136788144Y-27007552D01*
X136788144Y-27007552D02*
X136751858Y-26934980D01*
X136751858Y-26934980D02*
X136751858Y-26717266D01*
X136751858Y-26717266D02*
X136788144Y-26644694D01*
X136788144Y-26644694D02*
X136824429Y-26608409D01*
X136824429Y-27406694D02*
X136788144Y-27442980D01*
X136788144Y-27442980D02*
X136751858Y-27406694D01*
X136751858Y-27406694D02*
X136788144Y-27370408D01*
X136788144Y-27370408D02*
X136824429Y-27406694D01*
X136824429Y-27406694D02*
X136751858Y-27406694D01*
X137513858Y-27696980D02*
X137513858Y-28168694D01*
X137513858Y-28168694D02*
X137223572Y-27914694D01*
X137223572Y-27914694D02*
X137223572Y-28023551D01*
X137223572Y-28023551D02*
X137187286Y-28096123D01*
X137187286Y-28096123D02*
X137151001Y-28132408D01*
X137151001Y-28132408D02*
X137078429Y-28168694D01*
X137078429Y-28168694D02*
X136897001Y-28168694D01*
X136897001Y-28168694D02*
X136824429Y-28132408D01*
X136824429Y-28132408D02*
X136788144Y-28096123D01*
X136788144Y-28096123D02*
X136751858Y-28023551D01*
X136751858Y-28023551D02*
X136751858Y-27805837D01*
X136751858Y-27805837D02*
X136788144Y-27733265D01*
X136788144Y-27733265D02*
X136824429Y-27696980D01*
X137513858Y-28386408D02*
X136751858Y-28640408D01*
X136751858Y-28640408D02*
X137513858Y-28894408D01*
D10*
X167957977Y-58795735D02*
X167474167Y-58795735D01*
X167474167Y-58795735D02*
X167425786Y-59279545D01*
X167425786Y-59279545D02*
X167474167Y-59231164D01*
X167474167Y-59231164D02*
X167570929Y-59182783D01*
X167570929Y-59182783D02*
X167812834Y-59182783D01*
X167812834Y-59182783D02*
X167909596Y-59231164D01*
X167909596Y-59231164D02*
X167957977Y-59279545D01*
X167957977Y-59279545D02*
X168006358Y-59376307D01*
X168006358Y-59376307D02*
X168006358Y-59618212D01*
X168006358Y-59618212D02*
X167957977Y-59714974D01*
X167957977Y-59714974D02*
X167909596Y-59763355D01*
X167909596Y-59763355D02*
X167812834Y-59811735D01*
X167812834Y-59811735D02*
X167570929Y-59811735D01*
X167570929Y-59811735D02*
X167474167Y-59763355D01*
X167474167Y-59763355D02*
X167425786Y-59714974D01*
X169070738Y-58795735D02*
X169409405Y-59811735D01*
X169409405Y-59811735D02*
X169748072Y-58795735D01*
D14*
X143355858Y-87532123D02*
X143355858Y-87096694D01*
X143355858Y-87314409D02*
X144117858Y-87314409D01*
X144117858Y-87314409D02*
X144009001Y-87241837D01*
X144009001Y-87241837D02*
X143936429Y-87169266D01*
X143936429Y-87169266D02*
X143900144Y-87096694D01*
X144117858Y-87786123D02*
X144117858Y-88257837D01*
X144117858Y-88257837D02*
X143827572Y-88003837D01*
X143827572Y-88003837D02*
X143827572Y-88112694D01*
X143827572Y-88112694D02*
X143791286Y-88185266D01*
X143791286Y-88185266D02*
X143755001Y-88221551D01*
X143755001Y-88221551D02*
X143682429Y-88257837D01*
X143682429Y-88257837D02*
X143501001Y-88257837D01*
X143501001Y-88257837D02*
X143428429Y-88221551D01*
X143428429Y-88221551D02*
X143392144Y-88185266D01*
X143392144Y-88185266D02*
X143355858Y-88112694D01*
X143355858Y-88112694D02*
X143355858Y-87894980D01*
X143355858Y-87894980D02*
X143392144Y-87822408D01*
X143392144Y-87822408D02*
X143428429Y-87786123D01*
D16*
X133566819Y-45132380D02*
X134566819Y-44799047D01*
X134566819Y-44799047D02*
X133566819Y-44465714D01*
X134662057Y-44370476D02*
X134662057Y-43608571D01*
X134566819Y-43370475D02*
X133566819Y-43370475D01*
X134566819Y-42894285D02*
X133566819Y-42894285D01*
X133566819Y-42894285D02*
X134566819Y-42322857D01*
X134566819Y-42322857D02*
X133566819Y-42322857D01*
X134566819Y-41322857D02*
X134566819Y-41894285D01*
X134566819Y-41608571D02*
X133566819Y-41608571D01*
X133566819Y-41608571D02*
X133709676Y-41703809D01*
X133709676Y-41703809D02*
X133804914Y-41799047D01*
X133804914Y-41799047D02*
X133852533Y-41894285D01*
X113538095Y-63414819D02*
X113538095Y-64224342D01*
X113538095Y-64224342D02*
X113585714Y-64319580D01*
X113585714Y-64319580D02*
X113633333Y-64367200D01*
X113633333Y-64367200D02*
X113728571Y-64414819D01*
X113728571Y-64414819D02*
X113919047Y-64414819D01*
X113919047Y-64414819D02*
X114014285Y-64367200D01*
X114014285Y-64367200D02*
X114061904Y-64319580D01*
X114061904Y-64319580D02*
X114109523Y-64224342D01*
X114109523Y-64224342D02*
X114109523Y-63414819D01*
X114490476Y-63414819D02*
X115109523Y-63414819D01*
X115109523Y-63414819D02*
X114776190Y-63795771D01*
X114776190Y-63795771D02*
X114919047Y-63795771D01*
X114919047Y-63795771D02*
X115014285Y-63843390D01*
X115014285Y-63843390D02*
X115061904Y-63891009D01*
X115061904Y-63891009D02*
X115109523Y-63986247D01*
X115109523Y-63986247D02*
X115109523Y-64224342D01*
X115109523Y-64224342D02*
X115061904Y-64319580D01*
X115061904Y-64319580D02*
X115014285Y-64367200D01*
X115014285Y-64367200D02*
X114919047Y-64414819D01*
X114919047Y-64414819D02*
X114633333Y-64414819D01*
X114633333Y-64414819D02*
X114538095Y-64367200D01*
X114538095Y-64367200D02*
X114490476Y-64319580D01*
X124865142Y-54318819D02*
X124865142Y-55033104D01*
X124865142Y-55033104D02*
X124817523Y-55175961D01*
X124817523Y-55175961D02*
X124722285Y-55271200D01*
X124722285Y-55271200D02*
X124579428Y-55318819D01*
X124579428Y-55318819D02*
X124484190Y-55318819D01*
X125341333Y-55318819D02*
X125341333Y-54318819D01*
X125341333Y-54318819D02*
X125722285Y-54318819D01*
X125722285Y-54318819D02*
X125817523Y-54366438D01*
X125817523Y-54366438D02*
X125865142Y-54414057D01*
X125865142Y-54414057D02*
X125912761Y-54509295D01*
X125912761Y-54509295D02*
X125912761Y-54652152D01*
X125912761Y-54652152D02*
X125865142Y-54747390D01*
X125865142Y-54747390D02*
X125817523Y-54795009D01*
X125817523Y-54795009D02*
X125722285Y-54842628D01*
X125722285Y-54842628D02*
X125341333Y-54842628D01*
X126103238Y-55414057D02*
X126865142Y-55414057D01*
X126960381Y-54318819D02*
X127293714Y-55318819D01*
X127293714Y-55318819D02*
X127627047Y-54318819D01*
X127960381Y-55318819D02*
X127960381Y-54318819D01*
X127960381Y-54318819D02*
X128198476Y-54318819D01*
X128198476Y-54318819D02*
X128341333Y-54366438D01*
X128341333Y-54366438D02*
X128436571Y-54461676D01*
X128436571Y-54461676D02*
X128484190Y-54556914D01*
X128484190Y-54556914D02*
X128531809Y-54747390D01*
X128531809Y-54747390D02*
X128531809Y-54890247D01*
X128531809Y-54890247D02*
X128484190Y-55080723D01*
X128484190Y-55080723D02*
X128436571Y-55175961D01*
X128436571Y-55175961D02*
X128341333Y-55271200D01*
X128341333Y-55271200D02*
X128198476Y-55318819D01*
X128198476Y-55318819D02*
X127960381Y-55318819D01*
X129531809Y-55223580D02*
X129484190Y-55271200D01*
X129484190Y-55271200D02*
X129341333Y-55318819D01*
X129341333Y-55318819D02*
X129246095Y-55318819D01*
X129246095Y-55318819D02*
X129103238Y-55271200D01*
X129103238Y-55271200D02*
X129008000Y-55175961D01*
X129008000Y-55175961D02*
X128960381Y-55080723D01*
X128960381Y-55080723D02*
X128912762Y-54890247D01*
X128912762Y-54890247D02*
X128912762Y-54747390D01*
X128912762Y-54747390D02*
X128960381Y-54556914D01*
X128960381Y-54556914D02*
X129008000Y-54461676D01*
X129008000Y-54461676D02*
X129103238Y-54366438D01*
X129103238Y-54366438D02*
X129246095Y-54318819D01*
X129246095Y-54318819D02*
X129341333Y-54318819D01*
X129341333Y-54318819D02*
X129484190Y-54366438D01*
X129484190Y-54366438D02*
X129531809Y-54414057D01*
X130484190Y-55318819D02*
X129912762Y-55318819D01*
X130198476Y-55318819D02*
X130198476Y-54318819D01*
X130198476Y-54318819D02*
X130103238Y-54461676D01*
X130103238Y-54461676D02*
X130008000Y-54556914D01*
X130008000Y-54556914D02*
X129912762Y-54604533D01*
X135074819Y-74257094D02*
X134074819Y-74257094D01*
X134074819Y-74257094D02*
X134074819Y-74018999D01*
X134074819Y-74018999D02*
X134122438Y-73876142D01*
X134122438Y-73876142D02*
X134217676Y-73780904D01*
X134217676Y-73780904D02*
X134312914Y-73733285D01*
X134312914Y-73733285D02*
X134503390Y-73685666D01*
X134503390Y-73685666D02*
X134646247Y-73685666D01*
X134646247Y-73685666D02*
X134836723Y-73733285D01*
X134836723Y-73733285D02*
X134931961Y-73780904D01*
X134931961Y-73780904D02*
X135027200Y-73876142D01*
X135027200Y-73876142D02*
X135074819Y-74018999D01*
X135074819Y-74018999D02*
X135074819Y-74257094D01*
X134074819Y-73352332D02*
X134074819Y-72733285D01*
X134074819Y-72733285D02*
X134455771Y-73066618D01*
X134455771Y-73066618D02*
X134455771Y-72923761D01*
X134455771Y-72923761D02*
X134503390Y-72828523D01*
X134503390Y-72828523D02*
X134551009Y-72780904D01*
X134551009Y-72780904D02*
X134646247Y-72733285D01*
X134646247Y-72733285D02*
X134884342Y-72733285D01*
X134884342Y-72733285D02*
X134979580Y-72780904D01*
X134979580Y-72780904D02*
X135027200Y-72828523D01*
X135027200Y-72828523D02*
X135074819Y-72923761D01*
X135074819Y-72923761D02*
X135074819Y-73209475D01*
X135074819Y-73209475D02*
X135027200Y-73304713D01*
X135027200Y-73304713D02*
X134979580Y-73352332D01*
X131814819Y-73765166D02*
X131338628Y-74098499D01*
X131814819Y-74336594D02*
X130814819Y-74336594D01*
X130814819Y-74336594D02*
X130814819Y-73955642D01*
X130814819Y-73955642D02*
X130862438Y-73860404D01*
X130862438Y-73860404D02*
X130910057Y-73812785D01*
X130910057Y-73812785D02*
X131005295Y-73765166D01*
X131005295Y-73765166D02*
X131148152Y-73765166D01*
X131148152Y-73765166D02*
X131243390Y-73812785D01*
X131243390Y-73812785D02*
X131291009Y-73860404D01*
X131291009Y-73860404D02*
X131338628Y-73955642D01*
X131338628Y-73955642D02*
X131338628Y-74336594D01*
X130814819Y-73431832D02*
X130814819Y-72765166D01*
X130814819Y-72765166D02*
X131814819Y-73193737D01*
X161998819Y-74398094D02*
X160998819Y-74398094D01*
X160998819Y-74398094D02*
X160998819Y-74159999D01*
X160998819Y-74159999D02*
X161046438Y-74017142D01*
X161046438Y-74017142D02*
X161141676Y-73921904D01*
X161141676Y-73921904D02*
X161236914Y-73874285D01*
X161236914Y-73874285D02*
X161427390Y-73826666D01*
X161427390Y-73826666D02*
X161570247Y-73826666D01*
X161570247Y-73826666D02*
X161760723Y-73874285D01*
X161760723Y-73874285D02*
X161855961Y-73921904D01*
X161855961Y-73921904D02*
X161951200Y-74017142D01*
X161951200Y-74017142D02*
X161998819Y-74159999D01*
X161998819Y-74159999D02*
X161998819Y-74398094D01*
X160998819Y-72921904D02*
X160998819Y-73398094D01*
X160998819Y-73398094D02*
X161475009Y-73445713D01*
X161475009Y-73445713D02*
X161427390Y-73398094D01*
X161427390Y-73398094D02*
X161379771Y-73302856D01*
X161379771Y-73302856D02*
X161379771Y-73064761D01*
X161379771Y-73064761D02*
X161427390Y-72969523D01*
X161427390Y-72969523D02*
X161475009Y-72921904D01*
X161475009Y-72921904D02*
X161570247Y-72874285D01*
X161570247Y-72874285D02*
X161808342Y-72874285D01*
X161808342Y-72874285D02*
X161903580Y-72921904D01*
X161903580Y-72921904D02*
X161951200Y-72969523D01*
X161951200Y-72969523D02*
X161998819Y-73064761D01*
X161998819Y-73064761D02*
X161998819Y-73302856D01*
X161998819Y-73302856D02*
X161951200Y-73398094D01*
X161951200Y-73398094D02*
X161903580Y-73445713D01*
X122882819Y-61690094D02*
X121882819Y-61690094D01*
X121882819Y-61690094D02*
X121882819Y-61451999D01*
X121882819Y-61451999D02*
X121930438Y-61309142D01*
X121930438Y-61309142D02*
X122025676Y-61213904D01*
X122025676Y-61213904D02*
X122120914Y-61166285D01*
X122120914Y-61166285D02*
X122311390Y-61118666D01*
X122311390Y-61118666D02*
X122454247Y-61118666D01*
X122454247Y-61118666D02*
X122644723Y-61166285D01*
X122644723Y-61166285D02*
X122739961Y-61213904D01*
X122739961Y-61213904D02*
X122835200Y-61309142D01*
X122835200Y-61309142D02*
X122882819Y-61451999D01*
X122882819Y-61451999D02*
X122882819Y-61690094D01*
X122787580Y-60118666D02*
X122835200Y-60166285D01*
X122835200Y-60166285D02*
X122882819Y-60309142D01*
X122882819Y-60309142D02*
X122882819Y-60404380D01*
X122882819Y-60404380D02*
X122835200Y-60547237D01*
X122835200Y-60547237D02*
X122739961Y-60642475D01*
X122739961Y-60642475D02*
X122644723Y-60690094D01*
X122644723Y-60690094D02*
X122454247Y-60737713D01*
X122454247Y-60737713D02*
X122311390Y-60737713D01*
X122311390Y-60737713D02*
X122120914Y-60690094D01*
X122120914Y-60690094D02*
X122025676Y-60642475D01*
X122025676Y-60642475D02*
X121930438Y-60547237D01*
X121930438Y-60547237D02*
X121882819Y-60404380D01*
X121882819Y-60404380D02*
X121882819Y-60309142D01*
X121882819Y-60309142D02*
X121930438Y-60166285D01*
X121930438Y-60166285D02*
X121978057Y-60118666D01*
X121978057Y-59737713D02*
X121930438Y-59690094D01*
X121930438Y-59690094D02*
X121882819Y-59594856D01*
X121882819Y-59594856D02*
X121882819Y-59356761D01*
X121882819Y-59356761D02*
X121930438Y-59261523D01*
X121930438Y-59261523D02*
X121978057Y-59213904D01*
X121978057Y-59213904D02*
X122073295Y-59166285D01*
X122073295Y-59166285D02*
X122168533Y-59166285D01*
X122168533Y-59166285D02*
X122311390Y-59213904D01*
X122311390Y-59213904D02*
X122882819Y-59785332D01*
X122882819Y-59785332D02*
X122882819Y-59166285D01*
X102054819Y-61331094D02*
X101054819Y-61331094D01*
X101054819Y-61331094D02*
X101054819Y-61092999D01*
X101054819Y-61092999D02*
X101102438Y-60950142D01*
X101102438Y-60950142D02*
X101197676Y-60854904D01*
X101197676Y-60854904D02*
X101292914Y-60807285D01*
X101292914Y-60807285D02*
X101483390Y-60759666D01*
X101483390Y-60759666D02*
X101626247Y-60759666D01*
X101626247Y-60759666D02*
X101816723Y-60807285D01*
X101816723Y-60807285D02*
X101911961Y-60854904D01*
X101911961Y-60854904D02*
X102007200Y-60950142D01*
X102007200Y-60950142D02*
X102054819Y-61092999D01*
X102054819Y-61092999D02*
X102054819Y-61331094D01*
X101483390Y-60188237D02*
X101435771Y-60283475D01*
X101435771Y-60283475D02*
X101388152Y-60331094D01*
X101388152Y-60331094D02*
X101292914Y-60378713D01*
X101292914Y-60378713D02*
X101245295Y-60378713D01*
X101245295Y-60378713D02*
X101150057Y-60331094D01*
X101150057Y-60331094D02*
X101102438Y-60283475D01*
X101102438Y-60283475D02*
X101054819Y-60188237D01*
X101054819Y-60188237D02*
X101054819Y-59997761D01*
X101054819Y-59997761D02*
X101102438Y-59902523D01*
X101102438Y-59902523D02*
X101150057Y-59854904D01*
X101150057Y-59854904D02*
X101245295Y-59807285D01*
X101245295Y-59807285D02*
X101292914Y-59807285D01*
X101292914Y-59807285D02*
X101388152Y-59854904D01*
X101388152Y-59854904D02*
X101435771Y-59902523D01*
X101435771Y-59902523D02*
X101483390Y-59997761D01*
X101483390Y-59997761D02*
X101483390Y-60188237D01*
X101483390Y-60188237D02*
X101531009Y-60283475D01*
X101531009Y-60283475D02*
X101578628Y-60331094D01*
X101578628Y-60331094D02*
X101673866Y-60378713D01*
X101673866Y-60378713D02*
X101864342Y-60378713D01*
X101864342Y-60378713D02*
X101959580Y-60331094D01*
X101959580Y-60331094D02*
X102007200Y-60283475D01*
X102007200Y-60283475D02*
X102054819Y-60188237D01*
X102054819Y-60188237D02*
X102054819Y-59997761D01*
X102054819Y-59997761D02*
X102007200Y-59902523D01*
X102007200Y-59902523D02*
X101959580Y-59854904D01*
X101959580Y-59854904D02*
X101864342Y-59807285D01*
X101864342Y-59807285D02*
X101673866Y-59807285D01*
X101673866Y-59807285D02*
X101578628Y-59854904D01*
X101578628Y-59854904D02*
X101531009Y-59902523D01*
X101531009Y-59902523D02*
X101483390Y-59997761D01*
X166013142Y-50762819D02*
X166013142Y-51477104D01*
X166013142Y-51477104D02*
X165965523Y-51619961D01*
X165965523Y-51619961D02*
X165870285Y-51715200D01*
X165870285Y-51715200D02*
X165727428Y-51762819D01*
X165727428Y-51762819D02*
X165632190Y-51762819D01*
X166489333Y-51762819D02*
X166489333Y-50762819D01*
X166489333Y-50762819D02*
X166870285Y-50762819D01*
X166870285Y-50762819D02*
X166965523Y-50810438D01*
X166965523Y-50810438D02*
X167013142Y-50858057D01*
X167013142Y-50858057D02*
X167060761Y-50953295D01*
X167060761Y-50953295D02*
X167060761Y-51096152D01*
X167060761Y-51096152D02*
X167013142Y-51191390D01*
X167013142Y-51191390D02*
X166965523Y-51239009D01*
X166965523Y-51239009D02*
X166870285Y-51286628D01*
X166870285Y-51286628D02*
X166489333Y-51286628D01*
X167251238Y-51858057D02*
X168013142Y-51858057D01*
X168203619Y-51477104D02*
X168679809Y-51477104D01*
X168108381Y-51762819D02*
X168441714Y-50762819D01*
X168441714Y-50762819D02*
X168775047Y-51762819D01*
X169108381Y-51762819D02*
X169108381Y-50762819D01*
X169108381Y-50762819D02*
X169346476Y-50762819D01*
X169346476Y-50762819D02*
X169489333Y-50810438D01*
X169489333Y-50810438D02*
X169584571Y-50905676D01*
X169584571Y-50905676D02*
X169632190Y-51000914D01*
X169632190Y-51000914D02*
X169679809Y-51191390D01*
X169679809Y-51191390D02*
X169679809Y-51334247D01*
X169679809Y-51334247D02*
X169632190Y-51524723D01*
X169632190Y-51524723D02*
X169584571Y-51619961D01*
X169584571Y-51619961D02*
X169489333Y-51715200D01*
X169489333Y-51715200D02*
X169346476Y-51762819D01*
X169346476Y-51762819D02*
X169108381Y-51762819D01*
X170679809Y-51762819D02*
X170346476Y-51286628D01*
X170108381Y-51762819D02*
X170108381Y-50762819D01*
X170108381Y-50762819D02*
X170489333Y-50762819D01*
X170489333Y-50762819D02*
X170584571Y-50810438D01*
X170584571Y-50810438D02*
X170632190Y-50858057D01*
X170632190Y-50858057D02*
X170679809Y-50953295D01*
X170679809Y-50953295D02*
X170679809Y-51096152D01*
X170679809Y-51096152D02*
X170632190Y-51191390D01*
X170632190Y-51191390D02*
X170584571Y-51239009D01*
X170584571Y-51239009D02*
X170489333Y-51286628D01*
X170489333Y-51286628D02*
X170108381Y-51286628D01*
X171632190Y-51762819D02*
X171060762Y-51762819D01*
X171346476Y-51762819D02*
X171346476Y-50762819D01*
X171346476Y-50762819D02*
X171251238Y-50905676D01*
X171251238Y-50905676D02*
X171156000Y-51000914D01*
X171156000Y-51000914D02*
X171060762Y-51048533D01*
X136598819Y-61690094D02*
X135598819Y-61690094D01*
X135598819Y-61690094D02*
X135598819Y-61451999D01*
X135598819Y-61451999D02*
X135646438Y-61309142D01*
X135646438Y-61309142D02*
X135741676Y-61213904D01*
X135741676Y-61213904D02*
X135836914Y-61166285D01*
X135836914Y-61166285D02*
X136027390Y-61118666D01*
X136027390Y-61118666D02*
X136170247Y-61118666D01*
X136170247Y-61118666D02*
X136360723Y-61166285D01*
X136360723Y-61166285D02*
X136455961Y-61213904D01*
X136455961Y-61213904D02*
X136551200Y-61309142D01*
X136551200Y-61309142D02*
X136598819Y-61451999D01*
X136598819Y-61451999D02*
X136598819Y-61690094D01*
X136503580Y-60118666D02*
X136551200Y-60166285D01*
X136551200Y-60166285D02*
X136598819Y-60309142D01*
X136598819Y-60309142D02*
X136598819Y-60404380D01*
X136598819Y-60404380D02*
X136551200Y-60547237D01*
X136551200Y-60547237D02*
X136455961Y-60642475D01*
X136455961Y-60642475D02*
X136360723Y-60690094D01*
X136360723Y-60690094D02*
X136170247Y-60737713D01*
X136170247Y-60737713D02*
X136027390Y-60737713D01*
X136027390Y-60737713D02*
X135836914Y-60690094D01*
X135836914Y-60690094D02*
X135741676Y-60642475D01*
X135741676Y-60642475D02*
X135646438Y-60547237D01*
X135646438Y-60547237D02*
X135598819Y-60404380D01*
X135598819Y-60404380D02*
X135598819Y-60309142D01*
X135598819Y-60309142D02*
X135646438Y-60166285D01*
X135646438Y-60166285D02*
X135694057Y-60118666D01*
X135598819Y-59785332D02*
X135598819Y-59166285D01*
X135598819Y-59166285D02*
X135979771Y-59499618D01*
X135979771Y-59499618D02*
X135979771Y-59356761D01*
X135979771Y-59356761D02*
X136027390Y-59261523D01*
X136027390Y-59261523D02*
X136075009Y-59213904D01*
X136075009Y-59213904D02*
X136170247Y-59166285D01*
X136170247Y-59166285D02*
X136408342Y-59166285D01*
X136408342Y-59166285D02*
X136503580Y-59213904D01*
X136503580Y-59213904D02*
X136551200Y-59261523D01*
X136551200Y-59261523D02*
X136598819Y-59356761D01*
X136598819Y-59356761D02*
X136598819Y-59642475D01*
X136598819Y-59642475D02*
X136551200Y-59737713D01*
X136551200Y-59737713D02*
X136503580Y-59785332D01*
X121358819Y-74398094D02*
X120358819Y-74398094D01*
X120358819Y-74398094D02*
X120358819Y-74159999D01*
X120358819Y-74159999D02*
X120406438Y-74017142D01*
X120406438Y-74017142D02*
X120501676Y-73921904D01*
X120501676Y-73921904D02*
X120596914Y-73874285D01*
X120596914Y-73874285D02*
X120787390Y-73826666D01*
X120787390Y-73826666D02*
X120930247Y-73826666D01*
X120930247Y-73826666D02*
X121120723Y-73874285D01*
X121120723Y-73874285D02*
X121215961Y-73921904D01*
X121215961Y-73921904D02*
X121311200Y-74017142D01*
X121311200Y-74017142D02*
X121358819Y-74159999D01*
X121358819Y-74159999D02*
X121358819Y-74398094D01*
X120454057Y-73445713D02*
X120406438Y-73398094D01*
X120406438Y-73398094D02*
X120358819Y-73302856D01*
X120358819Y-73302856D02*
X120358819Y-73064761D01*
X120358819Y-73064761D02*
X120406438Y-72969523D01*
X120406438Y-72969523D02*
X120454057Y-72921904D01*
X120454057Y-72921904D02*
X120549295Y-72874285D01*
X120549295Y-72874285D02*
X120644533Y-72874285D01*
X120644533Y-72874285D02*
X120787390Y-72921904D01*
X120787390Y-72921904D02*
X121358819Y-73493332D01*
X121358819Y-73493332D02*
X121358819Y-72874285D01*
X124144819Y-36115523D02*
X124859104Y-36115523D01*
X124859104Y-36115523D02*
X125001961Y-36163142D01*
X125001961Y-36163142D02*
X125097200Y-36258380D01*
X125097200Y-36258380D02*
X125144819Y-36401237D01*
X125144819Y-36401237D02*
X125144819Y-36496475D01*
X125144819Y-35115523D02*
X125144819Y-35686951D01*
X125144819Y-35401237D02*
X124144819Y-35401237D01*
X124144819Y-35401237D02*
X124287676Y-35496475D01*
X124287676Y-35496475D02*
X124382914Y-35591713D01*
X124382914Y-35591713D02*
X124430533Y-35686951D01*
X124144819Y-34782189D02*
X124144819Y-34163142D01*
X124144819Y-34163142D02*
X124525771Y-34496475D01*
X124525771Y-34496475D02*
X124525771Y-34353618D01*
X124525771Y-34353618D02*
X124573390Y-34258380D01*
X124573390Y-34258380D02*
X124621009Y-34210761D01*
X124621009Y-34210761D02*
X124716247Y-34163142D01*
X124716247Y-34163142D02*
X124954342Y-34163142D01*
X124954342Y-34163142D02*
X125049580Y-34210761D01*
X125049580Y-34210761D02*
X125097200Y-34258380D01*
X125097200Y-34258380D02*
X125144819Y-34353618D01*
X125144819Y-34353618D02*
X125144819Y-34639332D01*
X125144819Y-34639332D02*
X125097200Y-34734570D01*
X125097200Y-34734570D02*
X125049580Y-34782189D01*
X156934819Y-84375523D02*
X157649104Y-84375523D01*
X157649104Y-84375523D02*
X157791961Y-84423142D01*
X157791961Y-84423142D02*
X157887200Y-84518380D01*
X157887200Y-84518380D02*
X157934819Y-84661237D01*
X157934819Y-84661237D02*
X157934819Y-84756475D01*
X157934819Y-83375523D02*
X157934819Y-83946951D01*
X157934819Y-83661237D02*
X156934819Y-83661237D01*
X156934819Y-83661237D02*
X157077676Y-83756475D01*
X157077676Y-83756475D02*
X157172914Y-83851713D01*
X157172914Y-83851713D02*
X157220533Y-83946951D01*
X157268152Y-82518380D02*
X157934819Y-82518380D01*
X156887200Y-82756475D02*
X157601485Y-82994570D01*
X157601485Y-82994570D02*
X157601485Y-82375523D01*
X110039642Y-43422819D02*
X109706309Y-42946628D01*
X109468214Y-43422819D02*
X109468214Y-42422819D01*
X109468214Y-42422819D02*
X109849166Y-42422819D01*
X109849166Y-42422819D02*
X109944404Y-42470438D01*
X109944404Y-42470438D02*
X109992023Y-42518057D01*
X109992023Y-42518057D02*
X110039642Y-42613295D01*
X110039642Y-42613295D02*
X110039642Y-42756152D01*
X110039642Y-42756152D02*
X109992023Y-42851390D01*
X109992023Y-42851390D02*
X109944404Y-42899009D01*
X109944404Y-42899009D02*
X109849166Y-42946628D01*
X109849166Y-42946628D02*
X109468214Y-42946628D01*
X110992023Y-43422819D02*
X110420595Y-43422819D01*
X110706309Y-43422819D02*
X110706309Y-42422819D01*
X110706309Y-42422819D02*
X110611071Y-42565676D01*
X110611071Y-42565676D02*
X110515833Y-42660914D01*
X110515833Y-42660914D02*
X110420595Y-42708533D01*
X111611071Y-42422819D02*
X111706309Y-42422819D01*
X111706309Y-42422819D02*
X111801547Y-42470438D01*
X111801547Y-42470438D02*
X111849166Y-42518057D01*
X111849166Y-42518057D02*
X111896785Y-42613295D01*
X111896785Y-42613295D02*
X111944404Y-42803771D01*
X111944404Y-42803771D02*
X111944404Y-43041866D01*
X111944404Y-43041866D02*
X111896785Y-43232342D01*
X111896785Y-43232342D02*
X111849166Y-43327580D01*
X111849166Y-43327580D02*
X111801547Y-43375200D01*
X111801547Y-43375200D02*
X111706309Y-43422819D01*
X111706309Y-43422819D02*
X111611071Y-43422819D01*
X111611071Y-43422819D02*
X111515833Y-43375200D01*
X111515833Y-43375200D02*
X111468214Y-43327580D01*
X111468214Y-43327580D02*
X111420595Y-43232342D01*
X111420595Y-43232342D02*
X111372976Y-43041866D01*
X111372976Y-43041866D02*
X111372976Y-42803771D01*
X111372976Y-42803771D02*
X111420595Y-42613295D01*
X111420595Y-42613295D02*
X111468214Y-42518057D01*
X111468214Y-42518057D02*
X111515833Y-42470438D01*
X111515833Y-42470438D02*
X111611071Y-42422819D01*
X153249333Y-55731580D02*
X153201714Y-55779200D01*
X153201714Y-55779200D02*
X153058857Y-55826819D01*
X153058857Y-55826819D02*
X152963619Y-55826819D01*
X152963619Y-55826819D02*
X152820762Y-55779200D01*
X152820762Y-55779200D02*
X152725524Y-55683961D01*
X152725524Y-55683961D02*
X152677905Y-55588723D01*
X152677905Y-55588723D02*
X152630286Y-55398247D01*
X152630286Y-55398247D02*
X152630286Y-55255390D01*
X152630286Y-55255390D02*
X152677905Y-55064914D01*
X152677905Y-55064914D02*
X152725524Y-54969676D01*
X152725524Y-54969676D02*
X152820762Y-54874438D01*
X152820762Y-54874438D02*
X152963619Y-54826819D01*
X152963619Y-54826819D02*
X153058857Y-54826819D01*
X153058857Y-54826819D02*
X153201714Y-54874438D01*
X153201714Y-54874438D02*
X153249333Y-54922057D01*
X153582667Y-54826819D02*
X154201714Y-54826819D01*
X154201714Y-54826819D02*
X153868381Y-55207771D01*
X153868381Y-55207771D02*
X154011238Y-55207771D01*
X154011238Y-55207771D02*
X154106476Y-55255390D01*
X154106476Y-55255390D02*
X154154095Y-55303009D01*
X154154095Y-55303009D02*
X154201714Y-55398247D01*
X154201714Y-55398247D02*
X154201714Y-55636342D01*
X154201714Y-55636342D02*
X154154095Y-55731580D01*
X154154095Y-55731580D02*
X154106476Y-55779200D01*
X154106476Y-55779200D02*
X154011238Y-55826819D01*
X154011238Y-55826819D02*
X153725524Y-55826819D01*
X153725524Y-55826819D02*
X153630286Y-55779200D01*
X153630286Y-55779200D02*
X153582667Y-55731580D01*
X106642819Y-67389333D02*
X107357104Y-67389333D01*
X107357104Y-67389333D02*
X107499961Y-67436952D01*
X107499961Y-67436952D02*
X107595200Y-67532190D01*
X107595200Y-67532190D02*
X107642819Y-67675047D01*
X107642819Y-67675047D02*
X107642819Y-67770285D01*
X107642819Y-66389333D02*
X107642819Y-66960761D01*
X107642819Y-66675047D02*
X106642819Y-66675047D01*
X106642819Y-66675047D02*
X106785676Y-66770285D01*
X106785676Y-66770285D02*
X106880914Y-66865523D01*
X106880914Y-66865523D02*
X106928533Y-66960761D01*
X147004819Y-36115523D02*
X147719104Y-36115523D01*
X147719104Y-36115523D02*
X147861961Y-36163142D01*
X147861961Y-36163142D02*
X147957200Y-36258380D01*
X147957200Y-36258380D02*
X148004819Y-36401237D01*
X148004819Y-36401237D02*
X148004819Y-36496475D01*
X148004819Y-35115523D02*
X148004819Y-35686951D01*
X148004819Y-35401237D02*
X147004819Y-35401237D01*
X147004819Y-35401237D02*
X147147676Y-35496475D01*
X147147676Y-35496475D02*
X147242914Y-35591713D01*
X147242914Y-35591713D02*
X147290533Y-35686951D01*
X148004819Y-34163142D02*
X148004819Y-34734570D01*
X148004819Y-34448856D02*
X147004819Y-34448856D01*
X147004819Y-34448856D02*
X147147676Y-34544094D01*
X147147676Y-34544094D02*
X147242914Y-34639332D01*
X147242914Y-34639332D02*
X147290533Y-34734570D01*
X121374819Y-67389333D02*
X122089104Y-67389333D01*
X122089104Y-67389333D02*
X122231961Y-67436952D01*
X122231961Y-67436952D02*
X122327200Y-67532190D01*
X122327200Y-67532190D02*
X122374819Y-67675047D01*
X122374819Y-67675047D02*
X122374819Y-67770285D01*
X121470057Y-66960761D02*
X121422438Y-66913142D01*
X121422438Y-66913142D02*
X121374819Y-66817904D01*
X121374819Y-66817904D02*
X121374819Y-66579809D01*
X121374819Y-66579809D02*
X121422438Y-66484571D01*
X121422438Y-66484571D02*
X121470057Y-66436952D01*
X121470057Y-66436952D02*
X121565295Y-66389333D01*
X121565295Y-66389333D02*
X121660533Y-66389333D01*
X121660533Y-66389333D02*
X121803390Y-66436952D01*
X121803390Y-66436952D02*
X122374819Y-67008380D01*
X122374819Y-67008380D02*
X122374819Y-66389333D01*
X148298819Y-67389333D02*
X149013104Y-67389333D01*
X149013104Y-67389333D02*
X149155961Y-67436952D01*
X149155961Y-67436952D02*
X149251200Y-67532190D01*
X149251200Y-67532190D02*
X149298819Y-67675047D01*
X149298819Y-67675047D02*
X149298819Y-67770285D01*
X148632152Y-66484571D02*
X149298819Y-66484571D01*
X148251200Y-66722666D02*
X148965485Y-66960761D01*
X148965485Y-66960761D02*
X148965485Y-66341714D01*
X102774819Y-66174857D02*
X102298628Y-66508190D01*
X102774819Y-66746285D02*
X101774819Y-66746285D01*
X101774819Y-66746285D02*
X101774819Y-66365333D01*
X101774819Y-66365333D02*
X101822438Y-66270095D01*
X101822438Y-66270095D02*
X101870057Y-66222476D01*
X101870057Y-66222476D02*
X101965295Y-66174857D01*
X101965295Y-66174857D02*
X102108152Y-66174857D01*
X102108152Y-66174857D02*
X102203390Y-66222476D01*
X102203390Y-66222476D02*
X102251009Y-66270095D01*
X102251009Y-66270095D02*
X102298628Y-66365333D01*
X102298628Y-66365333D02*
X102298628Y-66746285D01*
X102774819Y-65222476D02*
X102774819Y-65793904D01*
X102774819Y-65508190D02*
X101774819Y-65508190D01*
X101774819Y-65508190D02*
X101917676Y-65603428D01*
X101917676Y-65603428D02*
X102012914Y-65698666D01*
X102012914Y-65698666D02*
X102060533Y-65793904D01*
X102774819Y-64270095D02*
X102774819Y-64841523D01*
X102774819Y-64555809D02*
X101774819Y-64555809D01*
X101774819Y-64555809D02*
X101917676Y-64651047D01*
X101917676Y-64651047D02*
X102012914Y-64746285D01*
X102012914Y-64746285D02*
X102060533Y-64841523D01*
X148790819Y-74398094D02*
X147790819Y-74398094D01*
X147790819Y-74398094D02*
X147790819Y-74159999D01*
X147790819Y-74159999D02*
X147838438Y-74017142D01*
X147838438Y-74017142D02*
X147933676Y-73921904D01*
X147933676Y-73921904D02*
X148028914Y-73874285D01*
X148028914Y-73874285D02*
X148219390Y-73826666D01*
X148219390Y-73826666D02*
X148362247Y-73826666D01*
X148362247Y-73826666D02*
X148552723Y-73874285D01*
X148552723Y-73874285D02*
X148647961Y-73921904D01*
X148647961Y-73921904D02*
X148743200Y-74017142D01*
X148743200Y-74017142D02*
X148790819Y-74159999D01*
X148790819Y-74159999D02*
X148790819Y-74398094D01*
X148124152Y-72969523D02*
X148790819Y-72969523D01*
X147743200Y-73207618D02*
X148457485Y-73445713D01*
X148457485Y-73445713D02*
X148457485Y-72826666D01*
X162962833Y-43126819D02*
X162629500Y-42650628D01*
X162391405Y-43126819D02*
X162391405Y-42126819D01*
X162391405Y-42126819D02*
X162772357Y-42126819D01*
X162772357Y-42126819D02*
X162867595Y-42174438D01*
X162867595Y-42174438D02*
X162915214Y-42222057D01*
X162915214Y-42222057D02*
X162962833Y-42317295D01*
X162962833Y-42317295D02*
X162962833Y-42460152D01*
X162962833Y-42460152D02*
X162915214Y-42555390D01*
X162915214Y-42555390D02*
X162867595Y-42603009D01*
X162867595Y-42603009D02*
X162772357Y-42650628D01*
X162772357Y-42650628D02*
X162391405Y-42650628D01*
X163867595Y-42126819D02*
X163391405Y-42126819D01*
X163391405Y-42126819D02*
X163343786Y-42603009D01*
X163343786Y-42603009D02*
X163391405Y-42555390D01*
X163391405Y-42555390D02*
X163486643Y-42507771D01*
X163486643Y-42507771D02*
X163724738Y-42507771D01*
X163724738Y-42507771D02*
X163819976Y-42555390D01*
X163819976Y-42555390D02*
X163867595Y-42603009D01*
X163867595Y-42603009D02*
X163915214Y-42698247D01*
X163915214Y-42698247D02*
X163915214Y-42936342D01*
X163915214Y-42936342D02*
X163867595Y-43031580D01*
X163867595Y-43031580D02*
X163819976Y-43079200D01*
X163819976Y-43079200D02*
X163724738Y-43126819D01*
X163724738Y-43126819D02*
X163486643Y-43126819D01*
X163486643Y-43126819D02*
X163391405Y-43079200D01*
X163391405Y-43079200D02*
X163343786Y-43031580D01*
X105904819Y-84375523D02*
X106619104Y-84375523D01*
X106619104Y-84375523D02*
X106761961Y-84423142D01*
X106761961Y-84423142D02*
X106857200Y-84518380D01*
X106857200Y-84518380D02*
X106904819Y-84661237D01*
X106904819Y-84661237D02*
X106904819Y-84756475D01*
X106904819Y-83375523D02*
X106904819Y-83946951D01*
X106904819Y-83661237D02*
X105904819Y-83661237D01*
X105904819Y-83661237D02*
X106047676Y-83756475D01*
X106047676Y-83756475D02*
X106142914Y-83851713D01*
X106142914Y-83851713D02*
X106190533Y-83946951D01*
X106000057Y-82994570D02*
X105952438Y-82946951D01*
X105952438Y-82946951D02*
X105904819Y-82851713D01*
X105904819Y-82851713D02*
X105904819Y-82613618D01*
X105904819Y-82613618D02*
X105952438Y-82518380D01*
X105952438Y-82518380D02*
X106000057Y-82470761D01*
X106000057Y-82470761D02*
X106095295Y-82423142D01*
X106095295Y-82423142D02*
X106190533Y-82423142D01*
X106190533Y-82423142D02*
X106333390Y-82470761D01*
X106333390Y-82470761D02*
X106904819Y-83042189D01*
X106904819Y-83042189D02*
X106904819Y-82423142D01*
X118098819Y-73826666D02*
X117622628Y-74159999D01*
X118098819Y-74398094D02*
X117098819Y-74398094D01*
X117098819Y-74398094D02*
X117098819Y-74017142D01*
X117098819Y-74017142D02*
X117146438Y-73921904D01*
X117146438Y-73921904D02*
X117194057Y-73874285D01*
X117194057Y-73874285D02*
X117289295Y-73826666D01*
X117289295Y-73826666D02*
X117432152Y-73826666D01*
X117432152Y-73826666D02*
X117527390Y-73874285D01*
X117527390Y-73874285D02*
X117575009Y-73921904D01*
X117575009Y-73921904D02*
X117622628Y-74017142D01*
X117622628Y-74017142D02*
X117622628Y-74398094D01*
X117098819Y-72969523D02*
X117098819Y-73159999D01*
X117098819Y-73159999D02*
X117146438Y-73255237D01*
X117146438Y-73255237D02*
X117194057Y-73302856D01*
X117194057Y-73302856D02*
X117336914Y-73398094D01*
X117336914Y-73398094D02*
X117527390Y-73445713D01*
X117527390Y-73445713D02*
X117908342Y-73445713D01*
X117908342Y-73445713D02*
X118003580Y-73398094D01*
X118003580Y-73398094D02*
X118051200Y-73350475D01*
X118051200Y-73350475D02*
X118098819Y-73255237D01*
X118098819Y-73255237D02*
X118098819Y-73064761D01*
X118098819Y-73064761D02*
X118051200Y-72969523D01*
X118051200Y-72969523D02*
X118003580Y-72921904D01*
X118003580Y-72921904D02*
X117908342Y-72874285D01*
X117908342Y-72874285D02*
X117670247Y-72874285D01*
X117670247Y-72874285D02*
X117575009Y-72921904D01*
X117575009Y-72921904D02*
X117527390Y-72969523D01*
X117527390Y-72969523D02*
X117479771Y-73064761D01*
X117479771Y-73064761D02*
X117479771Y-73255237D01*
X117479771Y-73255237D02*
X117527390Y-73350475D01*
X117527390Y-73350475D02*
X117575009Y-73398094D01*
X117575009Y-73398094D02*
X117670247Y-73445713D01*
X145530819Y-73826666D02*
X145054628Y-74159999D01*
X145530819Y-74398094D02*
X144530819Y-74398094D01*
X144530819Y-74398094D02*
X144530819Y-74017142D01*
X144530819Y-74017142D02*
X144578438Y-73921904D01*
X144578438Y-73921904D02*
X144626057Y-73874285D01*
X144626057Y-73874285D02*
X144721295Y-73826666D01*
X144721295Y-73826666D02*
X144864152Y-73826666D01*
X144864152Y-73826666D02*
X144959390Y-73874285D01*
X144959390Y-73874285D02*
X145007009Y-73921904D01*
X145007009Y-73921904D02*
X145054628Y-74017142D01*
X145054628Y-74017142D02*
X145054628Y-74398094D01*
X144959390Y-73255237D02*
X144911771Y-73350475D01*
X144911771Y-73350475D02*
X144864152Y-73398094D01*
X144864152Y-73398094D02*
X144768914Y-73445713D01*
X144768914Y-73445713D02*
X144721295Y-73445713D01*
X144721295Y-73445713D02*
X144626057Y-73398094D01*
X144626057Y-73398094D02*
X144578438Y-73350475D01*
X144578438Y-73350475D02*
X144530819Y-73255237D01*
X144530819Y-73255237D02*
X144530819Y-73064761D01*
X144530819Y-73064761D02*
X144578438Y-72969523D01*
X144578438Y-72969523D02*
X144626057Y-72921904D01*
X144626057Y-72921904D02*
X144721295Y-72874285D01*
X144721295Y-72874285D02*
X144768914Y-72874285D01*
X144768914Y-72874285D02*
X144864152Y-72921904D01*
X144864152Y-72921904D02*
X144911771Y-72969523D01*
X144911771Y-72969523D02*
X144959390Y-73064761D01*
X144959390Y-73064761D02*
X144959390Y-73255237D01*
X144959390Y-73255237D02*
X145007009Y-73350475D01*
X145007009Y-73350475D02*
X145054628Y-73398094D01*
X145054628Y-73398094D02*
X145149866Y-73445713D01*
X145149866Y-73445713D02*
X145340342Y-73445713D01*
X145340342Y-73445713D02*
X145435580Y-73398094D01*
X145435580Y-73398094D02*
X145483200Y-73350475D01*
X145483200Y-73350475D02*
X145530819Y-73255237D01*
X145530819Y-73255237D02*
X145530819Y-73064761D01*
X145530819Y-73064761D02*
X145483200Y-72969523D01*
X145483200Y-72969523D02*
X145435580Y-72921904D01*
X145435580Y-72921904D02*
X145340342Y-72874285D01*
X145340342Y-72874285D02*
X145149866Y-72874285D01*
X145149866Y-72874285D02*
X145054628Y-72921904D01*
X145054628Y-72921904D02*
X145007009Y-72969523D01*
X145007009Y-72969523D02*
X144959390Y-73064761D01*
X115770819Y-53053904D02*
X115770819Y-53625332D01*
X115770819Y-53339618D02*
X114770819Y-53339618D01*
X114770819Y-53339618D02*
X114913676Y-53434856D01*
X114913676Y-53434856D02*
X115008914Y-53530094D01*
X115008914Y-53530094D02*
X115056533Y-53625332D01*
X114866057Y-52672951D02*
X114818438Y-52625332D01*
X114818438Y-52625332D02*
X114770819Y-52530094D01*
X114770819Y-52530094D02*
X114770819Y-52291999D01*
X114770819Y-52291999D02*
X114818438Y-52196761D01*
X114818438Y-52196761D02*
X114866057Y-52149142D01*
X114866057Y-52149142D02*
X114961295Y-52101523D01*
X114961295Y-52101523D02*
X115056533Y-52101523D01*
X115056533Y-52101523D02*
X115199390Y-52149142D01*
X115199390Y-52149142D02*
X115770819Y-52720570D01*
X115770819Y-52720570D02*
X115770819Y-52101523D01*
X114770819Y-51815808D02*
X115770819Y-51482475D01*
X115770819Y-51482475D02*
X114770819Y-51149142D01*
X115770819Y-50815808D02*
X114770819Y-50815808D01*
X114770819Y-50815808D02*
X114770819Y-50577713D01*
X114770819Y-50577713D02*
X114818438Y-50434856D01*
X114818438Y-50434856D02*
X114913676Y-50339618D01*
X114913676Y-50339618D02*
X115008914Y-50291999D01*
X115008914Y-50291999D02*
X115199390Y-50244380D01*
X115199390Y-50244380D02*
X115342247Y-50244380D01*
X115342247Y-50244380D02*
X115532723Y-50291999D01*
X115532723Y-50291999D02*
X115627961Y-50339618D01*
X115627961Y-50339618D02*
X115723200Y-50434856D01*
X115723200Y-50434856D02*
X115770819Y-50577713D01*
X115770819Y-50577713D02*
X115770819Y-50815808D01*
X115675580Y-49244380D02*
X115723200Y-49291999D01*
X115723200Y-49291999D02*
X115770819Y-49434856D01*
X115770819Y-49434856D02*
X115770819Y-49530094D01*
X115770819Y-49530094D02*
X115723200Y-49672951D01*
X115723200Y-49672951D02*
X115627961Y-49768189D01*
X115627961Y-49768189D02*
X115532723Y-49815808D01*
X115532723Y-49815808D02*
X115342247Y-49863427D01*
X115342247Y-49863427D02*
X115199390Y-49863427D01*
X115199390Y-49863427D02*
X115008914Y-49815808D01*
X115008914Y-49815808D02*
X114913676Y-49768189D01*
X114913676Y-49768189D02*
X114818438Y-49672951D01*
X114818438Y-49672951D02*
X114770819Y-49530094D01*
X114770819Y-49530094D02*
X114770819Y-49434856D01*
X114770819Y-49434856D02*
X114818438Y-49291999D01*
X114818438Y-49291999D02*
X114866057Y-49244380D01*
X115770819Y-48053903D02*
X114770819Y-48053903D01*
X115770819Y-47577713D02*
X114770819Y-47577713D01*
X114770819Y-47577713D02*
X115770819Y-47006285D01*
X115770819Y-47006285D02*
X114770819Y-47006285D01*
X161454905Y-45666819D02*
X161454905Y-44666819D01*
X161454905Y-44666819D02*
X161693000Y-44666819D01*
X161693000Y-44666819D02*
X161835857Y-44714438D01*
X161835857Y-44714438D02*
X161931095Y-44809676D01*
X161931095Y-44809676D02*
X161978714Y-44904914D01*
X161978714Y-44904914D02*
X162026333Y-45095390D01*
X162026333Y-45095390D02*
X162026333Y-45238247D01*
X162026333Y-45238247D02*
X161978714Y-45428723D01*
X161978714Y-45428723D02*
X161931095Y-45523961D01*
X161931095Y-45523961D02*
X161835857Y-45619200D01*
X161835857Y-45619200D02*
X161693000Y-45666819D01*
X161693000Y-45666819D02*
X161454905Y-45666819D01*
X162978714Y-45666819D02*
X162407286Y-45666819D01*
X162693000Y-45666819D02*
X162693000Y-44666819D01*
X162693000Y-44666819D02*
X162597762Y-44809676D01*
X162597762Y-44809676D02*
X162502524Y-44904914D01*
X162502524Y-44904914D02*
X162407286Y-44952533D01*
X166013142Y-52286819D02*
X166013142Y-53001104D01*
X166013142Y-53001104D02*
X165965523Y-53143961D01*
X165965523Y-53143961D02*
X165870285Y-53239200D01*
X165870285Y-53239200D02*
X165727428Y-53286819D01*
X165727428Y-53286819D02*
X165632190Y-53286819D01*
X166489333Y-53286819D02*
X166489333Y-52286819D01*
X166489333Y-52286819D02*
X166870285Y-52286819D01*
X166870285Y-52286819D02*
X166965523Y-52334438D01*
X166965523Y-52334438D02*
X167013142Y-52382057D01*
X167013142Y-52382057D02*
X167060761Y-52477295D01*
X167060761Y-52477295D02*
X167060761Y-52620152D01*
X167060761Y-52620152D02*
X167013142Y-52715390D01*
X167013142Y-52715390D02*
X166965523Y-52763009D01*
X166965523Y-52763009D02*
X166870285Y-52810628D01*
X166870285Y-52810628D02*
X166489333Y-52810628D01*
X167251238Y-53382057D02*
X168013142Y-53382057D01*
X168203619Y-53001104D02*
X168679809Y-53001104D01*
X168108381Y-53286819D02*
X168441714Y-52286819D01*
X168441714Y-52286819D02*
X168775047Y-53286819D01*
X169108381Y-53286819D02*
X169108381Y-52286819D01*
X169108381Y-52286819D02*
X169346476Y-52286819D01*
X169346476Y-52286819D02*
X169489333Y-52334438D01*
X169489333Y-52334438D02*
X169584571Y-52429676D01*
X169584571Y-52429676D02*
X169632190Y-52524914D01*
X169632190Y-52524914D02*
X169679809Y-52715390D01*
X169679809Y-52715390D02*
X169679809Y-52858247D01*
X169679809Y-52858247D02*
X169632190Y-53048723D01*
X169632190Y-53048723D02*
X169584571Y-53143961D01*
X169584571Y-53143961D02*
X169489333Y-53239200D01*
X169489333Y-53239200D02*
X169346476Y-53286819D01*
X169346476Y-53286819D02*
X169108381Y-53286819D01*
X170679809Y-53286819D02*
X170346476Y-52810628D01*
X170108381Y-53286819D02*
X170108381Y-52286819D01*
X170108381Y-52286819D02*
X170489333Y-52286819D01*
X170489333Y-52286819D02*
X170584571Y-52334438D01*
X170584571Y-52334438D02*
X170632190Y-52382057D01*
X170632190Y-52382057D02*
X170679809Y-52477295D01*
X170679809Y-52477295D02*
X170679809Y-52620152D01*
X170679809Y-52620152D02*
X170632190Y-52715390D01*
X170632190Y-52715390D02*
X170584571Y-52763009D01*
X170584571Y-52763009D02*
X170489333Y-52810628D01*
X170489333Y-52810628D02*
X170108381Y-52810628D01*
X171060762Y-52382057D02*
X171108381Y-52334438D01*
X171108381Y-52334438D02*
X171203619Y-52286819D01*
X171203619Y-52286819D02*
X171441714Y-52286819D01*
X171441714Y-52286819D02*
X171536952Y-52334438D01*
X171536952Y-52334438D02*
X171584571Y-52382057D01*
X171584571Y-52382057D02*
X171632190Y-52477295D01*
X171632190Y-52477295D02*
X171632190Y-52572533D01*
X171632190Y-52572533D02*
X171584571Y-52715390D01*
X171584571Y-52715390D02*
X171013143Y-53286819D01*
X171013143Y-53286819D02*
X171632190Y-53286819D01*
X149806819Y-61690094D02*
X148806819Y-61690094D01*
X148806819Y-61690094D02*
X148806819Y-61451999D01*
X148806819Y-61451999D02*
X148854438Y-61309142D01*
X148854438Y-61309142D02*
X148949676Y-61213904D01*
X148949676Y-61213904D02*
X149044914Y-61166285D01*
X149044914Y-61166285D02*
X149235390Y-61118666D01*
X149235390Y-61118666D02*
X149378247Y-61118666D01*
X149378247Y-61118666D02*
X149568723Y-61166285D01*
X149568723Y-61166285D02*
X149663961Y-61213904D01*
X149663961Y-61213904D02*
X149759200Y-61309142D01*
X149759200Y-61309142D02*
X149806819Y-61451999D01*
X149806819Y-61451999D02*
X149806819Y-61690094D01*
X149711580Y-60118666D02*
X149759200Y-60166285D01*
X149759200Y-60166285D02*
X149806819Y-60309142D01*
X149806819Y-60309142D02*
X149806819Y-60404380D01*
X149806819Y-60404380D02*
X149759200Y-60547237D01*
X149759200Y-60547237D02*
X149663961Y-60642475D01*
X149663961Y-60642475D02*
X149568723Y-60690094D01*
X149568723Y-60690094D02*
X149378247Y-60737713D01*
X149378247Y-60737713D02*
X149235390Y-60737713D01*
X149235390Y-60737713D02*
X149044914Y-60690094D01*
X149044914Y-60690094D02*
X148949676Y-60642475D01*
X148949676Y-60642475D02*
X148854438Y-60547237D01*
X148854438Y-60547237D02*
X148806819Y-60404380D01*
X148806819Y-60404380D02*
X148806819Y-60309142D01*
X148806819Y-60309142D02*
X148854438Y-60166285D01*
X148854438Y-60166285D02*
X148902057Y-60118666D01*
X149140152Y-59261523D02*
X149806819Y-59261523D01*
X148759200Y-59499618D02*
X149473485Y-59737713D01*
X149473485Y-59737713D02*
X149473485Y-59118666D01*
X158738819Y-73826666D02*
X158262628Y-74159999D01*
X158738819Y-74398094D02*
X157738819Y-74398094D01*
X157738819Y-74398094D02*
X157738819Y-74017142D01*
X157738819Y-74017142D02*
X157786438Y-73921904D01*
X157786438Y-73921904D02*
X157834057Y-73874285D01*
X157834057Y-73874285D02*
X157929295Y-73826666D01*
X157929295Y-73826666D02*
X158072152Y-73826666D01*
X158072152Y-73826666D02*
X158167390Y-73874285D01*
X158167390Y-73874285D02*
X158215009Y-73921904D01*
X158215009Y-73921904D02*
X158262628Y-74017142D01*
X158262628Y-74017142D02*
X158262628Y-74398094D01*
X158738819Y-73350475D02*
X158738819Y-73159999D01*
X158738819Y-73159999D02*
X158691200Y-73064761D01*
X158691200Y-73064761D02*
X158643580Y-73017142D01*
X158643580Y-73017142D02*
X158500723Y-72921904D01*
X158500723Y-72921904D02*
X158310247Y-72874285D01*
X158310247Y-72874285D02*
X157929295Y-72874285D01*
X157929295Y-72874285D02*
X157834057Y-72921904D01*
X157834057Y-72921904D02*
X157786438Y-72969523D01*
X157786438Y-72969523D02*
X157738819Y-73064761D01*
X157738819Y-73064761D02*
X157738819Y-73255237D01*
X157738819Y-73255237D02*
X157786438Y-73350475D01*
X157786438Y-73350475D02*
X157834057Y-73398094D01*
X157834057Y-73398094D02*
X157929295Y-73445713D01*
X157929295Y-73445713D02*
X158167390Y-73445713D01*
X158167390Y-73445713D02*
X158262628Y-73398094D01*
X158262628Y-73398094D02*
X158310247Y-73350475D01*
X158310247Y-73350475D02*
X158357866Y-73255237D01*
X158357866Y-73255237D02*
X158357866Y-73064761D01*
X158357866Y-73064761D02*
X158310247Y-72969523D01*
X158310247Y-72969523D02*
X158262628Y-72921904D01*
X158262628Y-72921904D02*
X158167390Y-72874285D01*
X134582819Y-67389333D02*
X135297104Y-67389333D01*
X135297104Y-67389333D02*
X135439961Y-67436952D01*
X135439961Y-67436952D02*
X135535200Y-67532190D01*
X135535200Y-67532190D02*
X135582819Y-67675047D01*
X135582819Y-67675047D02*
X135582819Y-67770285D01*
X134582819Y-67008380D02*
X134582819Y-66389333D01*
X134582819Y-66389333D02*
X134963771Y-66722666D01*
X134963771Y-66722666D02*
X134963771Y-66579809D01*
X134963771Y-66579809D02*
X135011390Y-66484571D01*
X135011390Y-66484571D02*
X135059009Y-66436952D01*
X135059009Y-66436952D02*
X135154247Y-66389333D01*
X135154247Y-66389333D02*
X135392342Y-66389333D01*
X135392342Y-66389333D02*
X135487580Y-66436952D01*
X135487580Y-66436952D02*
X135535200Y-66484571D01*
X135535200Y-66484571D02*
X135582819Y-66579809D01*
X135582819Y-66579809D02*
X135582819Y-66865523D01*
X135582819Y-66865523D02*
X135535200Y-66960761D01*
X135535200Y-66960761D02*
X135487580Y-67008380D01*
D17*
%TO.C,V_IN1*%
X132782000Y-48514000D02*
X135442000Y-48514000D01*
X132782000Y-45914000D02*
X134112000Y-45914000D01*
X135442000Y-48514000D02*
X135442000Y-53654000D01*
X132782000Y-47244000D02*
X132782000Y-45914000D01*
X132782000Y-48514000D02*
X132782000Y-53654000D01*
X132782000Y-53654000D02*
X135442000Y-53654000D01*
%TO.C,U3*%
X119420000Y-61450000D02*
X109180000Y-61450000D01*
X109180000Y-62960000D02*
X109180000Y-58319000D01*
X119420000Y-58319000D02*
X109180000Y-58319000D01*
X119420000Y-62960000D02*
X119420000Y-58319000D01*
X112449000Y-62960000D02*
X112449000Y-61450000D01*
X116150000Y-62960000D02*
X116150000Y-61450000D01*
X119420000Y-62960000D02*
X109180000Y-62960000D01*
%TO.C,JP_VDC1*%
X123130000Y-45914000D02*
X124460000Y-45914000D01*
X123130000Y-47244000D02*
X123130000Y-45914000D01*
X123130000Y-48514000D02*
X123130000Y-53654000D01*
X123130000Y-48514000D02*
X125790000Y-48514000D01*
X123130000Y-53654000D02*
X125790000Y-53654000D01*
X125790000Y-48514000D02*
X125790000Y-53654000D01*
%TO.C,D3*%
X132361000Y-71859000D02*
X132361000Y-74319000D01*
X133831000Y-71859000D02*
X132361000Y-71859000D01*
X133831000Y-74319000D02*
X133831000Y-71859000D01*
%TO.C,R7*%
X128630000Y-72871436D02*
X128630000Y-74325564D01*
X130450000Y-72871436D02*
X130450000Y-74325564D01*
%TO.C,D5*%
X159285000Y-72000000D02*
X159285000Y-74460000D01*
X160755000Y-72000000D02*
X159285000Y-72000000D01*
X160755000Y-74460000D02*
X160755000Y-72000000D01*
%TO.C,J18*%
X150079000Y-73680000D02*
X150079000Y-76280000D01*
X150079000Y-73680000D02*
X152739000Y-73680000D01*
X150079000Y-76280000D02*
X152739000Y-76280000D01*
X151409000Y-71080000D02*
X152739000Y-71080000D01*
X152739000Y-71080000D02*
X152739000Y-72410000D01*
X152739000Y-73680000D02*
X152739000Y-76280000D01*
%TO.C,DC2*%
X124161000Y-61782000D02*
X124161000Y-60452000D01*
X125491000Y-61782000D02*
X124161000Y-61782000D01*
X126761000Y-59122000D02*
X131901000Y-59122000D01*
X126761000Y-61782000D02*
X126761000Y-59122000D01*
X126761000Y-61782000D02*
X131901000Y-61782000D01*
X131901000Y-61782000D02*
X131901000Y-59122000D01*
%TO.C,D7*%
X115532000Y-41883000D02*
X117992000Y-41883000D01*
X117992000Y-40413000D02*
X115532000Y-40413000D01*
X117992000Y-41883000D02*
X117992000Y-40413000D01*
%TO.C,D8*%
X102389000Y-58933000D02*
X102389000Y-61393000D01*
X103859000Y-58933000D02*
X102389000Y-58933000D01*
X103859000Y-61393000D02*
X103859000Y-58933000D01*
%TO.C,J6*%
X151356000Y-22172000D02*
X160556000Y-22172000D01*
X151356000Y-30972000D02*
X151356000Y-22172000D01*
X151356000Y-36872000D02*
X151356000Y-34972000D01*
X154056000Y-36872000D02*
X151356000Y-36872000D01*
X159706000Y-37072000D02*
X160756000Y-37072000D01*
X160556000Y-22172000D02*
X160556000Y-36872000D01*
X160556000Y-36872000D02*
X157956000Y-36872000D01*
X160756000Y-36022000D02*
X160756000Y-37072000D01*
%TO.C,JP_ADR1*%
X164801000Y-50098000D02*
X164801000Y-48768000D01*
X166131000Y-50098000D02*
X164801000Y-50098000D01*
X167401000Y-47438000D02*
X172541000Y-47438000D01*
X167401000Y-50098000D02*
X167401000Y-47438000D01*
X167401000Y-50098000D02*
X172541000Y-50098000D01*
X172541000Y-50098000D02*
X172541000Y-47438000D01*
%TO.C,DC3*%
X137354000Y-61782000D02*
X137354000Y-60452000D01*
X138684000Y-61782000D02*
X137354000Y-61782000D01*
X139954000Y-59122000D02*
X145094000Y-59122000D01*
X139954000Y-61782000D02*
X139954000Y-59122000D01*
X139954000Y-61782000D02*
X145094000Y-61782000D01*
X145094000Y-61782000D02*
X145094000Y-59122000D01*
%TO.C,D2*%
X118645000Y-72000000D02*
X118645000Y-74460000D01*
X120115000Y-72000000D02*
X118645000Y-72000000D01*
X120115000Y-74460000D02*
X120115000Y-72000000D01*
%TO.C,J13*%
X107890000Y-32706000D02*
X107890000Y-37906000D01*
X120650000Y-35306000D02*
X120650000Y-37906000D01*
X120650000Y-37906000D02*
X107890000Y-37906000D01*
X123250000Y-32706000D02*
X107890000Y-32706000D01*
X123250000Y-32706000D02*
X123250000Y-35306000D01*
X123250000Y-35306000D02*
X120650000Y-35306000D01*
X123250000Y-36576000D02*
X123250000Y-37906000D01*
X123250000Y-37906000D02*
X121920000Y-37906000D01*
%TO.C,J15*%
X109439000Y-73680000D02*
X109439000Y-76280000D01*
X109439000Y-73680000D02*
X112099000Y-73680000D01*
X109439000Y-76280000D02*
X112099000Y-76280000D01*
X110769000Y-71080000D02*
X112099000Y-71080000D01*
X112099000Y-71080000D02*
X112099000Y-72410000D01*
X112099000Y-73680000D02*
X112099000Y-76280000D01*
%TO.C,J17*%
X136871000Y-73680000D02*
X136871000Y-76280000D01*
X136871000Y-73680000D02*
X139531000Y-73680000D01*
X136871000Y-76280000D02*
X139531000Y-76280000D01*
X138201000Y-71080000D02*
X139531000Y-71080000D01*
X139531000Y-71080000D02*
X139531000Y-72410000D01*
X139531000Y-73680000D02*
X139531000Y-76280000D01*
D14*
%TO.C,U1*%
X145700000Y-40826000D02*
X151921000Y-40826000D01*
X145700000Y-47566000D02*
X145700000Y-40826000D01*
X151921000Y-47566000D02*
X145700000Y-47566000D01*
D13*
X141728000Y-41906000D02*
G75*
G02*
X141728000Y-41906000I-100000J0D01*
G01*
D17*
%TO.C,J5*%
X113104000Y-56180000D02*
X113104000Y-55680000D01*
X112864000Y-55940000D02*
X112864000Y-45660000D01*
X112364000Y-56180000D02*
X113104000Y-56180000D01*
X112304000Y-55940000D02*
X112304000Y-45660000D01*
X110804000Y-55940000D02*
X110804000Y-45660000D01*
X109443000Y-49294000D02*
X109478000Y-49329000D01*
X109227000Y-49487000D02*
X109273000Y-49534000D01*
X107135000Y-46985000D02*
X107181000Y-47032000D01*
X106929000Y-47190000D02*
X106965000Y-47225000D01*
X105903000Y-55940000D02*
X105903000Y-45660000D01*
X102943000Y-55940000D02*
X112864000Y-55940000D01*
X102943000Y-55940000D02*
X102943000Y-45660000D01*
X102943000Y-45660000D02*
X112864000Y-45660000D01*
X109884252Y-53311195D02*
G75*
G02*
X109738999Y-54024000I-1680253J-28806D01*
G01*
X109738755Y-52656682D02*
G75*
G02*
X109883999Y-53340000I-1534755J-683318D01*
G01*
X108887042Y-54875426D02*
G75*
G02*
X107520001Y-54874999I-683041J1535419D01*
G01*
X107520958Y-51804574D02*
G75*
G02*
X108888000Y-51805000I683042J-1535426D01*
G01*
X106668574Y-54023042D02*
G75*
G02*
X106669001Y-52656001I1535419J683041D01*
G01*
X109884000Y-48260000D02*
G75*
G02*
X109884000Y-48260000I-1680000J0D01*
G01*
%TO.C,J14*%
X129734000Y-80966000D02*
X131064000Y-80966000D01*
X129734000Y-82296000D02*
X129734000Y-80966000D01*
X129734000Y-83566000D02*
X132334000Y-83566000D01*
X129734000Y-86166000D02*
X129734000Y-83566000D01*
X129734000Y-86166000D02*
X155254000Y-86166000D01*
X132334000Y-80966000D02*
X155254000Y-80966000D01*
X132334000Y-83566000D02*
X132334000Y-80966000D01*
X155254000Y-86166000D02*
X155254000Y-80966000D01*
%TO.C,R10*%
X111409564Y-40238000D02*
X109955436Y-40238000D01*
X111409564Y-42058000D02*
X109955436Y-42058000D01*
%TO.C,C3*%
X144406500Y-51492500D02*
X145194000Y-51492500D01*
X144800250Y-51098750D02*
X144800250Y-51886250D01*
X145434000Y-50994437D02*
X145434000Y-52280000D01*
X145434000Y-50994437D02*
X146498437Y-49930000D01*
X145434000Y-55685563D02*
X145434000Y-54400000D01*
X145434000Y-55685563D02*
X146498437Y-56750000D01*
X146498437Y-49930000D02*
X152254000Y-49930000D01*
X146498437Y-56750000D02*
X152254000Y-56750000D01*
X152254000Y-49930000D02*
X152254000Y-52280000D01*
X152254000Y-56750000D02*
X152254000Y-54400000D01*
%TO.C,J1*%
X109074000Y-65056000D02*
X109074000Y-69056000D01*
X109364000Y-64026000D02*
X109364000Y-70046000D01*
X109364000Y-70046000D02*
X119744000Y-70046000D01*
X109944000Y-64026000D02*
X109944000Y-64626000D01*
X109944000Y-64626000D02*
X111544000Y-64626000D01*
X110744000Y-69046000D02*
X110994000Y-68516000D01*
X110744000Y-69046000D02*
X118364000Y-69046000D01*
X110744000Y-70046000D02*
X110744000Y-69046000D01*
X110994000Y-68516000D02*
X118114000Y-68516000D01*
X110994000Y-70046000D02*
X110994000Y-69046000D01*
X111544000Y-64626000D02*
X111544000Y-64026000D01*
X112484000Y-64026000D02*
X112484000Y-64626000D01*
X112484000Y-64626000D02*
X114084000Y-64626000D01*
X114084000Y-64626000D02*
X114084000Y-64026000D01*
X115024000Y-64026000D02*
X115024000Y-64626000D01*
X115024000Y-64626000D02*
X116624000Y-64626000D01*
X116624000Y-64626000D02*
X116624000Y-64026000D01*
X117564000Y-64026000D02*
X117564000Y-64626000D01*
X117564000Y-64626000D02*
X119164000Y-64626000D01*
X118114000Y-68516000D02*
X118364000Y-69046000D01*
X118114000Y-70046000D02*
X118114000Y-69046000D01*
X118364000Y-69046000D02*
X118364000Y-70046000D01*
X119164000Y-64626000D02*
X119164000Y-64026000D01*
X119744000Y-64026000D02*
X109364000Y-64026000D01*
X119744000Y-70046000D02*
X119744000Y-64026000D01*
%TO.C,D6*%
X122644000Y-41883000D02*
X125104000Y-41883000D01*
X125104000Y-40413000D02*
X122644000Y-40413000D01*
X125104000Y-41883000D02*
X125104000Y-40413000D01*
%TO.C,J11*%
X125670000Y-32706000D02*
X125670000Y-37906000D01*
X143510000Y-35306000D02*
X143510000Y-37906000D01*
X143510000Y-37906000D02*
X125670000Y-37906000D01*
X146110000Y-32706000D02*
X125670000Y-32706000D01*
X146110000Y-32706000D02*
X146110000Y-35306000D01*
X146110000Y-35306000D02*
X143510000Y-35306000D01*
X146110000Y-36576000D02*
X146110000Y-37906000D01*
X146110000Y-37906000D02*
X144780000Y-37906000D01*
%TO.C,J2*%
X122790000Y-65056000D02*
X122790000Y-69056000D01*
X123080000Y-64026000D02*
X123080000Y-70046000D01*
X123080000Y-70046000D02*
X133460000Y-70046000D01*
X123660000Y-64026000D02*
X123660000Y-64626000D01*
X123660000Y-64626000D02*
X125260000Y-64626000D01*
X124460000Y-69046000D02*
X124710000Y-68516000D01*
X124460000Y-69046000D02*
X132080000Y-69046000D01*
X124460000Y-70046000D02*
X124460000Y-69046000D01*
X124710000Y-68516000D02*
X131830000Y-68516000D01*
X124710000Y-70046000D02*
X124710000Y-69046000D01*
X125260000Y-64626000D02*
X125260000Y-64026000D01*
X126200000Y-64026000D02*
X126200000Y-64626000D01*
X126200000Y-64626000D02*
X127800000Y-64626000D01*
X127800000Y-64626000D02*
X127800000Y-64026000D01*
X128740000Y-64026000D02*
X128740000Y-64626000D01*
X128740000Y-64626000D02*
X130340000Y-64626000D01*
X130340000Y-64626000D02*
X130340000Y-64026000D01*
X131280000Y-64026000D02*
X131280000Y-64626000D01*
X131280000Y-64626000D02*
X132880000Y-64626000D01*
X131830000Y-68516000D02*
X132080000Y-69046000D01*
X131830000Y-70046000D02*
X131830000Y-69046000D01*
X132080000Y-69046000D02*
X132080000Y-70046000D01*
X132880000Y-64626000D02*
X132880000Y-64026000D01*
X133460000Y-64026000D02*
X123080000Y-64026000D01*
X133460000Y-70046000D02*
X133460000Y-64026000D01*
%TO.C,J4*%
X149714000Y-65056000D02*
X149714000Y-69056000D01*
X150004000Y-64026000D02*
X150004000Y-70046000D01*
X150004000Y-70046000D02*
X160384000Y-70046000D01*
X150584000Y-64026000D02*
X150584000Y-64626000D01*
X150584000Y-64626000D02*
X152184000Y-64626000D01*
X151384000Y-69046000D02*
X151634000Y-68516000D01*
X151384000Y-69046000D02*
X159004000Y-69046000D01*
X151384000Y-70046000D02*
X151384000Y-69046000D01*
X151634000Y-68516000D02*
X158754000Y-68516000D01*
X151634000Y-70046000D02*
X151634000Y-69046000D01*
X152184000Y-64626000D02*
X152184000Y-64026000D01*
X153124000Y-64026000D02*
X153124000Y-64626000D01*
X153124000Y-64626000D02*
X154724000Y-64626000D01*
X154724000Y-64626000D02*
X154724000Y-64026000D01*
X155664000Y-64026000D02*
X155664000Y-64626000D01*
X155664000Y-64626000D02*
X157264000Y-64626000D01*
X157264000Y-64626000D02*
X157264000Y-64026000D01*
X158204000Y-64026000D02*
X158204000Y-64626000D01*
X158204000Y-64626000D02*
X159804000Y-64626000D01*
X158754000Y-68516000D02*
X159004000Y-69046000D01*
X158754000Y-70046000D02*
X158754000Y-69046000D01*
X159004000Y-69046000D02*
X159004000Y-70046000D01*
X159804000Y-64626000D02*
X159804000Y-64026000D01*
X160384000Y-64026000D02*
X150004000Y-64026000D01*
X160384000Y-70046000D02*
X160384000Y-64026000D01*
%TO.C,R11*%
X103230000Y-66259064D02*
X103230000Y-64804936D01*
X105050000Y-66259064D02*
X105050000Y-64804936D01*
%TO.C,D4*%
X146077000Y-72000000D02*
X146077000Y-74460000D01*
X147547000Y-72000000D02*
X146077000Y-72000000D01*
X147547000Y-74460000D02*
X147547000Y-72000000D01*
%TO.C,R5*%
X160239064Y-43582000D02*
X158784936Y-43582000D01*
X160239064Y-41762000D02*
X158784936Y-41762000D01*
%TO.C,J12*%
X107890000Y-80966000D02*
X109220000Y-80966000D01*
X107890000Y-82296000D02*
X107890000Y-80966000D01*
X107890000Y-83566000D02*
X110490000Y-83566000D01*
X107890000Y-86166000D02*
X107890000Y-83566000D01*
X107890000Y-86166000D02*
X128330000Y-86166000D01*
X110490000Y-80966000D02*
X128330000Y-80966000D01*
X110490000Y-83566000D02*
X110490000Y-80966000D01*
X128330000Y-86166000D02*
X128330000Y-80966000D01*
%TO.C,R6*%
X114914000Y-72932936D02*
X114914000Y-74387064D01*
X116734000Y-72932936D02*
X116734000Y-74387064D01*
%TO.C,R8*%
X142346000Y-72932936D02*
X142346000Y-74387064D01*
X144166000Y-72932936D02*
X144166000Y-74387064D01*
%TO.C,J16*%
X123155000Y-73680000D02*
X123155000Y-76280000D01*
X123155000Y-73680000D02*
X125815000Y-73680000D01*
X123155000Y-76280000D02*
X125815000Y-76280000D01*
X124485000Y-71080000D02*
X125815000Y-71080000D01*
X125815000Y-71080000D02*
X125815000Y-72410000D01*
X125815000Y-73680000D02*
X125815000Y-76280000D01*
%TO.C,J19*%
X120710000Y-50038000D02*
X120710000Y-47438000D01*
X120710000Y-50038000D02*
X118050000Y-50038000D01*
X120710000Y-47438000D02*
X118050000Y-47438000D01*
X119380000Y-52638000D02*
X118050000Y-52638000D01*
X118050000Y-52638000D02*
X118050000Y-51308000D01*
X118050000Y-50038000D02*
X118050000Y-47438000D01*
%TO.C,D1*%
X158712000Y-45947000D02*
X161172000Y-45947000D01*
X161172000Y-44477000D02*
X158712000Y-44477000D01*
X161172000Y-45947000D02*
X161172000Y-44477000D01*
%TO.C,JP_ADR2*%
X164801000Y-56702000D02*
X164801000Y-55372000D01*
X166131000Y-56702000D02*
X164801000Y-56702000D01*
X167401000Y-54042000D02*
X172541000Y-54042000D01*
X167401000Y-56702000D02*
X167401000Y-54042000D01*
X167401000Y-56702000D02*
X172541000Y-56702000D01*
X172541000Y-56702000D02*
X172541000Y-54042000D01*
%TO.C,DC4*%
X151070000Y-61782000D02*
X151070000Y-60452000D01*
X152400000Y-61782000D02*
X151070000Y-61782000D01*
X153670000Y-59122000D02*
X158810000Y-59122000D01*
X153670000Y-61782000D02*
X153670000Y-59122000D01*
X153670000Y-61782000D02*
X158810000Y-61782000D01*
X158810000Y-61782000D02*
X158810000Y-59122000D01*
%TO.C,R9*%
X155554000Y-72932936D02*
X155554000Y-74387064D01*
X157374000Y-72932936D02*
X157374000Y-74387064D01*
%TO.C,J3*%
X136252000Y-65076000D02*
X136252000Y-69076000D01*
X136542000Y-64046000D02*
X136542000Y-70066000D01*
X136542000Y-70066000D02*
X146922000Y-70066000D01*
X137122000Y-64046000D02*
X137122000Y-64646000D01*
X137122000Y-64646000D02*
X138722000Y-64646000D01*
X137922000Y-69066000D02*
X138172000Y-68536000D01*
X137922000Y-69066000D02*
X145542000Y-69066000D01*
X137922000Y-70066000D02*
X137922000Y-69066000D01*
X138172000Y-68536000D02*
X145292000Y-68536000D01*
X138172000Y-70066000D02*
X138172000Y-69066000D01*
X138722000Y-64646000D02*
X138722000Y-64046000D01*
X139662000Y-64046000D02*
X139662000Y-64646000D01*
X139662000Y-64646000D02*
X141262000Y-64646000D01*
X141262000Y-64646000D02*
X141262000Y-64046000D01*
X142202000Y-64046000D02*
X142202000Y-64646000D01*
X142202000Y-64646000D02*
X143802000Y-64646000D01*
X143802000Y-64646000D02*
X143802000Y-64046000D01*
X144742000Y-64046000D02*
X144742000Y-64646000D01*
X144742000Y-64646000D02*
X146342000Y-64646000D01*
X145292000Y-68536000D02*
X145542000Y-69066000D01*
X145292000Y-70066000D02*
X145292000Y-69066000D01*
X145542000Y-69066000D02*
X145542000Y-70066000D01*
X146342000Y-64646000D02*
X146342000Y-64046000D01*
X146922000Y-64046000D02*
X136542000Y-64046000D01*
X146922000Y-70066000D02*
X146922000Y-64046000D01*
%TD*%
M02*
